Monda-Light.ufo
<glyph name="exclam" format="1">
  <advance width="661"/>
  <unicode hex="0021"/>
  <outline>
    <contour>
      <point x="246" y="0" type="line"/>
      <point x="432" y="0" type="line"/>
      <point x="432" y="189" type="line"/>
      <point x="246" y="189" type="line"/>
    </contour>
    <contour>
      <point x="314" y="354" type="curve"/>
      <point x="362" y="354" type="line"/>
      <point x="362" y="354"/>
      <point x="432" y="933"/>
      <point x="432" y="1433" type="curve"/>
      <point x="254" y="1433" type="line"/>
      <point x="254" y="933"/>
      <point x="314" y="354"/>
    </contour>
  </outline>
</glyph>
<glyph name="percent" format="1">
  <advance width="2215"/>
  <unicode hex="0025"/>
  <outline>
    <contour>
      <point x="553" y="800" type="curve" smooth="yes"/>
      <point x="415" y="800"/>
      <point x="398" y="905"/>
      <point x="398" y="1046" type="curve" smooth="yes"/>
      <point x="398" y="1141" type="line" smooth="yes"/>
      <point x="398" y="1277"/>
      <point x="410" y="1371"/>
      <point x="553" y="1371" type="curve" smooth="yes"/>
      <point x="697" y="1371"/>
      <point x="710" y="1277"/>
      <point x="710" y="1139" type="curve" smooth="yes"/>
      <point x="710" y="1046" type="line" smooth="yes"/>
      <point x="710" y="905"/>
      <point x="691" y="800"/>
    </contour>
    <contour>
      <point x="553" y="684" type="curve" smooth="yes"/>
      <point x="783" y="684"/>
      <point x="855" y="834"/>
      <point x="855" y="1063" type="curve" smooth="yes"/>
      <point x="855" y="1117" type="line" smooth="yes"/>
      <point x="853" y="1350"/>
      <point x="783" y="1487"/>
      <point x="553" y="1487" type="curve" smooth="yes"/>
      <point x="322" y="1487"/>
      <point x="255" y="1349"/>
      <point x="255" y="1116" type="curve" smooth="yes"/>
      <point x="255" y="1063" type="line" smooth="yes"/>
      <point x="255" y="835"/>
      <point x="323" y="684"/>
    </contour>
    <contour>
      <point x="1657" y="97" type="curve" smooth="yes"/>
      <point x="1519" y="97"/>
      <point x="1502" y="202"/>
      <point x="1502" y="343" type="curve" smooth="yes"/>
      <point x="1502" y="438" type="line" smooth="yes"/>
      <point x="1502" y="574"/>
      <point x="1514" y="668"/>
      <point x="1657" y="668" type="curve" smooth="yes"/>
      <point x="1801" y="668"/>
      <point x="1814" y="574"/>
      <point x="1814" y="436" type="curve" smooth="yes"/>
      <point x="1814" y="343" type="line" smooth="yes"/>
      <point x="1814" y="202"/>
      <point x="1795" y="97"/>
    </contour>
    <contour>
      <point x="1657" y="-19" type="curve" smooth="yes"/>
      <point x="1887" y="-19"/>
      <point x="1959" y="131"/>
      <point x="1959" y="360" type="curve" smooth="yes"/>
      <point x="1959" y="414" type="line" smooth="yes"/>
      <point x="1957" y="647"/>
      <point x="1887" y="784"/>
      <point x="1657" y="784" type="curve" smooth="yes"/>
      <point x="1426" y="784"/>
      <point x="1359" y="646"/>
      <point x="1359" y="413" type="curve" smooth="yes"/>
      <point x="1359" y="360" type="line" smooth="yes"/>
      <point x="1359" y="132"/>
      <point x="1427" y="-19"/>
    </contour>
    <contour>
      <point x="751" y="0" type="line"/>
      <point x="905" y="0" type="line"/>
      <point x="1443" y="1446" type="line"/>
      <point x="1294" y="1446" type="line"/>
    </contour>
  </outline>
</glyph>
<glyph name="quotesingle" format="1">
  <advance width="637"/>
  <unicode hex="0027"/>
  <outline>
    <contour>
      <point x="306" y="870" type="line"/>
      <point x="378" y="870" type="line"/>
      <point x="447" y="1446" type="line"/>
      <point x="242" y="1446" type="line"/>
    </contour>
  </outline>
</glyph>
<glyph name="plus" format="1">
  <advance width="1069"/>
  <unicode hex="002B"/>
  <outline>
    <contour>
      <point x="459" y="156" type="line"/>
      <point x="610" y="156" type="line"/>
      <point x="610" y="494" type="line"/>
      <point x="885" y="494" type="line"/>
      <point x="885" y="642" type="line"/>
      <point x="610" y="642" type="line"/>
      <point x="610" y="968" type="line"/>
      <point x="459" y="968" type="line"/>
      <point x="459" y="642" type="line"/>
      <point x="183" y="642" type="line"/>
      <point x="183" y="494" type="line"/>
      <point x="459" y="494" type="line"/>
    </contour>
  </outline>
</glyph>
<glyph name="comma" format="1">
  <advance width="522"/>
  <unicode hex="002C"/>
  <outline>
    <contour>
      <point x="228" y="-331" type="line"/>
      <point x="285" y="-278"/>
      <point x="391" y="-138"/>
      <point x="391" y="49" type="curve" smooth="yes"/>
      <point x="391" y="215" type="line"/>
      <point x="161" y="215" type="line"/>
      <point x="161" y="0" type="line"/>
      <point x="292" y="0" type="line"/>
      <point x="292" y="-129"/>
      <point x="204" y="-234"/>
      <point x="158" y="-288" type="curve"/>
    </contour>
  </outline>
</glyph>
<glyph name="zero" format="1">
  <advance width="1289"/>
  <unicode hex="0030"/>
  <outline>
    <contour>
      <point x="656" y="97" type="curve" smooth="yes"/>
      <point x="338" y="97"/>
      <point x="326" y="344"/>
      <point x="326" y="655" type="curve" smooth="yes"/>
      <point x="326" y="781" type="line" smooth="yes"/>
      <point x="326" y="1091"/>
      <point x="344" y="1352"/>
      <point x="656" y="1352" type="curve" smooth="yes"/>
      <point x="971" y="1352"/>
      <point x="963" y="1091"/>
      <point x="963" y="781" type="curve" smooth="yes"/>
      <point x="963" y="655" type="line" smooth="yes"/>
      <point x="963" y="345"/>
      <point x="976" y="97"/>
    </contour>
    <contour>
      <point x="656" y="-23" type="curve" smooth="yes"/>
      <point x="1152" y="-23"/>
      <point x="1138" y="402"/>
      <point x="1138" y="713" type="curve" smooth="yes"/>
      <point x="1138" y="716" type="line" smooth="yes"/>
      <point x="1138" y="1036"/>
      <point x="1151" y="1473"/>
      <point x="656" y="1473" type="curve" smooth="yes"/>
      <point x="137" y="1473"/>
      <point x="150" y="1053"/>
      <point x="150" y="733" type="curve" smooth="yes"/>
      <point x="150" y="695" type="line" smooth="yes"/>
      <point x="150" y="379"/>
      <point x="138" y="-23"/>
    </contour>
  </outline>
</glyph>
<glyph name="seven" format="1">
  <advance width="1298"/>
  <unicode hex="0037"/>
  <outline>
    <contour>
      <point x="414" y="0" type="line"/>
      <point x="581" y="0" type="line"/>
      <point x="1089" y="1297" type="line"/>
      <point x="1089" y="1433" type="line"/>
      <point x="224" y="1433" type="line"/>
      <point x="224" y="1311" type="line"/>
      <point x="941" y="1311" type="line"/>
    </contour>
  </outline>
</glyph>
<glyph name="eight" format="1">
  <advance width="1297"/>
  <unicode hex="0038"/>
  <outline>
    <contour>
      <point x="643" y="-22" type="curve" smooth="yes"/>
      <point x="915" y="-22"/>
      <point x="1140" y="85"/>
      <point x="1140" y="346" type="curve" smooth="yes"/>
      <point x="1140" y="582"/>
      <point x="953" y="704"/>
      <point x="781" y="769" type="curve"/>
      <point x="952" y="833"/>
      <point x="1110" y="921"/>
      <point x="1110" y="1128" type="curve" smooth="yes"/>
      <point x="1110" y="1402"/>
      <point x="872" y="1474"/>
      <point x="650" y="1474" type="curve" smooth="yes"/>
      <point x="424" y="1474"/>
      <point x="187" y="1401"/>
      <point x="187" y="1128" type="curve" smooth="yes"/>
      <point x="187" y="921"/>
      <point x="344" y="833"/>
      <point x="515" y="769" type="curve"/>
      <point x="343" y="704"/>
      <point x="156" y="583"/>
      <point x="156" y="346" type="curve" smooth="yes"/>
      <point x="156" y="85"/>
      <point x="379" y="-22"/>
    </contour>
    <contour>
      <point x="650" y="117" type="curve" smooth="yes"/>
      <point x="465" y="117"/>
      <point x="321" y="157"/>
      <point x="321" y="358" type="curve" smooth="yes"/>
      <point x="321" y="534"/>
      <point x="494" y="582"/>
      <point x="648" y="684" type="curve" smooth="yes"/>
      <point x="801" y="582"/>
      <point x="976" y="534"/>
      <point x="976" y="358" type="curve" smooth="yes"/>
      <point x="976" y="157"/>
      <point x="830" y="117"/>
    </contour>
    <contour>
      <point x="648" y="833" type="curve" smooth="yes"/>
      <point x="509" y="924"/>
      <point x="349" y="974"/>
      <point x="349" y="1119" type="curve" smooth="yes"/>
      <point x="349" y="1262"/>
      <point x="434" y="1343"/>
      <point x="650" y="1343" type="curve" smooth="yes"/>
      <point x="862" y="1343"/>
      <point x="948" y="1262"/>
      <point x="948" y="1119" type="curve" smooth="yes"/>
      <point x="948" y="973"/>
      <point x="788" y="925"/>
    </contour>
  </outline>
</glyph>
<glyph name="less" format="1">
  <advance width="1372"/>
  <unicode hex="003C"/>
  <outline>
    <contour>
      <point x="1130" y="-13" type="line"/>
      <point x="1130" y="197" type="line"/>
      <point x="1166" y="171"/>
      <point x="279" y="606"/>
      <point x="341" y="580" type="curve"/>
      <point x="1130" y="959" type="line"/>
      <point x="1130" y="1171" type="line"/>
      <point x="184" y="675" type="line"/>
      <point x="184" y="482" type="line"/>
    </contour>
  </outline>
</glyph>
<glyph name="equal" format="1">
  <advance width="1433"/>
  <unicode hex="003D"/>
  <outline>
    <contour>
      <point x="273" y="542" type="line"/>
      <point x="1162" y="542" type="line"/>
      <point x="1162" y="679" type="line"/>
      <point x="273" y="679" type="line"/>
    </contour>
    <contour>
      <point x="273" y="900" type="line"/>
      <point x="1162" y="900" type="line"/>
      <point x="1162" y="1037" type="line"/>
      <point x="273" y="1037" type="line"/>
    </contour>
  </outline>
</glyph>
<glyph name="greater" format="1">
  <advance width="1372"/>
  <unicode hex="003E"/>
  <outline>
    <contour>
      <point x="228" y="-13" type="line"/>
      <point x="1175" y="483" type="line"/>
      <point x="1175" y="677" type="line"/>
      <point x="228" y="1171" type="line"/>
      <point x="228" y="962" type="line"/>
      <point x="1018" y="577" type="line"/>
      <point x="228" y="200" type="line"/>
    </contour>
  </outline>
</glyph>
<glyph name="at" format="1">
  <advance width="1725"/>
  <unicode hex="0040"/>
  <outline>
    <contour>
      <point x="917" y="-302" type="curve" smooth="yes"/>
      <point x="1173" y="-302"/>
      <point x="1432" y="-243"/>
      <point x="1522" y="-187" type="curve"/>
      <point x="1505" y="-59" type="line"/>
      <point x="1404" y="-109"/>
      <point x="1171" y="-167"/>
      <point x="917" y="-167" type="curve" smooth="yes"/>
      <point x="625" y="-167"/>
      <point x="393" y="-75"/>
      <point x="393" y="193" type="curve" smooth="yes"/>
      <point x="393" y="113"/>
      <point x="337" y="871"/>
      <point x="227" y="871" type="curve" smooth="yes"/>
      <point x="112" y="1241"/>
      <point x="295" y="1445"/>
      <point x="727" y="1531" type="curve" smooth="yes"/>
      <point x="1243" y="1545"/>
      <point x="1293" y="1397"/>
      <point x="1335" y="1106" type="curve" smooth="yes"/>
      <point x="1359" y="1106"/>
      <point x="1143" y="1038"/>
      <point x="971" y="987" type="curve" smooth="yes"/>
      <point x="471" y="866"/>
      <point x="384" y="592"/>
      <point x="384" y="390" type="curve"/>
      <point x="384" y="154"/>
      <point x="618" y="-48"/>
      <point x="943" y="-48" type="curve"/>
      <point x="1224" y="-48"/>
      <point x="1392" y="96"/>
      <point x="1461" y="199" type="curve"/>
      <point x="1506" y="83"/>
      <point x="1565" y="-28"/>
      <point x="1791" y="-28" type="curve" smooth="yes"/>
      <point x="1861" y="-28"/>
      <point x="1928" y="51"/>
      <point x="1928" y="100" type="curve" smooth="yes"/>
      <point x="1928" y="150"/>
      <point x="1926" y="394"/>
      <point x="1858" y="394" type="curve" smooth="yes"/>
      <point x="1673" y="394"/>
      <point x="1661" y="441"/>
      <point x="1644" y="568" type="curve"/>
      <point x="1627" y="587"/>
      <point x="1602" y="1175"/>
      <point x="1565" y="1175" type="curve" smooth="yes"/>
      <point x="1478" y="1421"/>
      <point x="1458" y="1787"/>
      <point x="657" y="1727" type="curve" smooth="yes"/>
      <point x="-44" y="1605"/>
      <point x="-186" y="1205"/>
      <point x="-19" y="764" type="curve" smooth="yes"/>
      <point x="145" y="764"/>
      <point x="217" y="117"/>
      <point x="217" y="237" type="curve" smooth="yes"/>
      <point x="217" y="-51"/>
      <point x="424" y="-302"/>
    </contour>
    <contour>
      <point x="1011" y="313" type="curve" smooth="yes"/>
      <point x="902" y="313"/>
      <point x="798" y="354"/>
      <point x="789" y="491" type="curve" smooth="yes"/>
      <point x="780" y="615"/>
      <point x="826" y="644"/>
      <point x="1079" y="724" type="curve" smooth="yes"/>
      <point x="1267" y="774"/>
      <point x="1407" y="815"/>
      <point x="1430" y="832" type="curve"/>
      <point x="1430" y="538" type="line"/>
      <point x="1397" y="401"/>
      <point x="1166" y="313"/>
    </contour>
  </outline>
</glyph>
<glyph name="A" format="1">
  <advance width="1317"/>
  <unicode hex="0041"/>
  <outline>
    <contour>
      <point x="66" y="0" type="line"/>
      <point x="231" y="0" type="line"/>
      <point x="335" y="283" type="line"/>
      <point x="990" y="283" type="line"/>
      <point x="1094" y="0" type="line"/>
      <point x="1251" y="0" type="line"/>
      <point x="701" y="1433" type="line"/>
      <point x="616" y="1433" type="line"/>
    </contour>
    <contour>
      <point x="379" y="392" type="line"/>
      <point x="664" y="1166" type="line"/>
      <point x="948" y="392" type="line"/>
    </contour>
  </outline>
</glyph>
<glyph name="B" format="1">
  <advance width="1469"/>
  <unicode hex="0042"/>
  <outline>
    <contour>
      <point x="244" y="-1" type="line"/>
      <point x="804" y="-1" type="line" smooth="yes"/>
      <point x="1150" y="-1"/>
      <point x="1343" y="118"/>
      <point x="1346" y="395" type="curve" smooth="yes"/>
      <point x="1346" y="537"/>
      <point x="1233" y="713"/>
      <point x="1086" y="760" type="curve"/>
      <point x="1185" y="801"/>
      <point x="1256" y="915"/>
      <point x="1260" y="1032" type="curve" smooth="yes"/>
      <point x="1260" y="1279"/>
      <point x="1173" y="1433"/>
      <point x="777" y="1433" type="curve" smooth="yes"/>
      <point x="244" y="1433" type="line"/>
    </contour>
    <contour>
      <point x="406" y="124" type="line"/>
      <point x="406" y="693" type="line"/>
      <point x="893" y="693" type="line" smooth="yes"/>
      <point x="1114" y="693"/>
      <point x="1184" y="566"/>
      <point x="1184" y="440" type="curve" smooth="yes"/>
      <point x="1184" y="153"/>
      <point x="1021" y="124"/>
      <point x="800" y="124" type="curve" smooth="yes"/>
    </contour>
    <contour>
      <point x="406" y="812" type="line"/>
      <point x="406" y="1304" type="line"/>
      <point x="755" y="1304" type="line" smooth="yes"/>
      <point x="1017" y="1304"/>
      <point x="1103" y="1263"/>
      <point x="1103" y="1031" type="curve" smooth="yes"/>
      <point x="1103" y="902"/>
      <point x="1042" y="812"/>
      <point x="856" y="812" type="curve" smooth="yes"/>
    </contour>
  </outline>
</glyph>
<glyph name="C" format="1">
  <advance width="1444"/>
  <unicode hex="0043"/>
  <outline>
    <contour>
      <point x="754" y="-23" type="curve" smooth="yes"/>
      <point x="1199" y="-23"/>
      <point x="1275" y="203"/>
      <point x="1275" y="503" type="curve" smooth="yes"/>
      <point x="1275" y="547" type="line"/>
      <point x="1121" y="547" type="line"/>
      <point x="1121" y="455" type="line" smooth="yes"/>
      <point x="1121" y="176"/>
      <point x="1026" y="93"/>
      <point x="754" y="93" type="curve" smooth="yes"/>
      <point x="484" y="93"/>
      <point x="354" y="177"/>
      <point x="354" y="455" type="curve" smooth="yes"/>
      <point x="354" y="981" type="line" smooth="yes"/>
      <point x="354" y="1262"/>
      <point x="483" y="1356"/>
      <point x="752" y="1356" type="curve" smooth="yes"/>
      <point x="1022" y="1356"/>
      <point x="1121" y="1263"/>
      <point x="1121" y="981" type="curve" smooth="yes"/>
      <point x="1121" y="899" type="line"/>
      <point x="1275" y="899" type="line"/>
      <point x="1275" y="929" type="line" smooth="yes"/>
      <point x="1275" y="1238"/>
      <point x="1200" y="1473"/>
      <point x="752" y="1473" type="curve" smooth="yes"/>
      <point x="285" y="1473"/>
      <point x="193" y="1253"/>
      <point x="193" y="944" type="curve" smooth="yes"/>
      <point x="193" y="487" type="line" smooth="yes"/>
      <point x="193" y="182"/>
      <point x="290" y="-23"/>
    </contour>
  </outline>
</glyph>
<glyph name="D" format="1">
  <advance width="1528"/>
  <unicode hex="0044"/>
  <outline>
    <contour>
      <point x="406" y="116" type="line"/>
      <point x="406" y="1316" type="line"/>
      <point x="767" y="1316" type="line" smooth="yes"/>
      <point x="973" y="1316"/>
      <point x="1175" y="1271"/>
      <point x="1175" y="959" type="curve" smooth="yes"/>
      <point x="1175" y="459" type="line" smooth="yes"/>
      <point x="1175" y="149"/>
      <point x="975" y="116"/>
      <point x="767" y="116" type="curve" smooth="yes"/>
    </contour>
    <contour>
      <point x="244" y="0" type="line"/>
      <point x="784" y="0" type="line" smooth="yes"/>
      <point x="1131" y="0"/>
      <point x="1335" y="150"/>
      <point x="1335" y="471" type="curve" smooth="yes"/>
      <point x="1335" y="958" type="line" smooth="yes"/>
      <point x="1335" y="1229"/>
      <point x="1172" y="1433"/>
      <point x="782" y="1433" type="curve" smooth="yes"/>
      <point x="244" y="1433" type="line"/>
    </contour>
  </outline>
</glyph>
<glyph name="E" format="1">
  <advance width="1222"/>
  <unicode hex="0045"/>
  <outline>
    <contour>
      <point x="244" y="0" type="line"/>
      <point x="1051" y="0" type="line"/>
      <point x="1051" y="117" type="line"/>
      <point x="405" y="117" type="line"/>
      <point x="405" y="672" type="line"/>
      <point x="985" y="672" type="line"/>
      <point x="985" y="795" type="line"/>
      <point x="405" y="795" type="line"/>
      <point x="405" y="1316" type="line"/>
      <point x="1042" y="1316" type="line"/>
      <point x="1042" y="1433" type="line"/>
      <point x="244" y="1433" type="line"/>
    </contour>
  </outline>
</glyph>
<glyph name="G" format="1">
  <advance width="1510"/>
  <unicode hex="0047"/>
  <outline>
    <contour>
      <point x="755" y="-23" type="curve" smooth="yes"/>
      <point x="1049" y="-23"/>
      <point x="1143" y="117"/>
      <point x="1162" y="247" type="curve"/>
      <point x="1207" y="0" type="line"/>
      <point x="1304" y="0" type="line"/>
      <point x="1304" y="726" type="line"/>
      <point x="899" y="726" type="line"/>
      <point x="899" y="599" type="line"/>
      <point x="1109" y="599" type="line"/>
      <point x="1109" y="455" type="line" smooth="yes"/>
      <point x="1109" y="176"/>
      <point x="1027" y="93"/>
      <point x="755" y="93" type="curve" smooth="yes"/>
      <point x="484" y="93"/>
      <point x="354" y="177"/>
      <point x="354" y="455" type="curve" smooth="yes"/>
      <point x="354" y="981" type="line" smooth="yes"/>
      <point x="354" y="1262"/>
      <point x="491" y="1356"/>
      <point x="760" y="1356" type="curve" smooth="yes"/>
      <point x="1030" y="1356"/>
      <point x="1123" y="1263"/>
      <point x="1123" y="981" type="curve" smooth="yes"/>
      <point x="1123" y="889" type="line"/>
      <point x="1277" y="889" type="line"/>
      <point x="1277" y="929" type="line" smooth="yes"/>
      <point x="1277" y="1238"/>
      <point x="1208" y="1473"/>
      <point x="760" y="1473" type="curve" smooth="yes"/>
      <point x="293" y="1473"/>
      <point x="193" y="1253"/>
      <point x="193" y="944" type="curve" smooth="yes"/>
      <point x="193" y="487" type="line" smooth="yes"/>
      <point x="193" y="182"/>
      <point x="290" y="-23"/>
    </contour>
  </outline>
</glyph>
<glyph name="J" format="1">
  <advance width="1209"/>
  <unicode hex="004A"/>
  <outline>
    <contour>
      <point x="505" y="-11" type="curve" smooth="yes"/>
      <point x="828" y="-11"/>
      <point x="965" y="165"/>
      <point x="965" y="435" type="curve" smooth="yes"/>
      <point x="965" y="1433" type="line"/>
      <point x="213" y="1433" type="line"/>
      <point x="213" y="1294" type="line"/>
      <point x="805" y="1294" type="line"/>
      <point x="805" y="430" type="line" smooth="yes"/>
      <point x="805" y="218"/>
      <point x="698" y="120"/>
      <point x="505" y="120" type="curve" smooth="yes"/>
      <point x="341" y="120"/>
      <point x="158" y="184"/>
      <point x="140" y="196" type="curve"/>
      <point x="91" y="71" type="line"/>
      <point x="129" y="49"/>
      <point x="327" y="-11"/>
    </contour>
  </outline>
</glyph>
<glyph name="K" format="1">
  <advance width="1403"/>
  <unicode hex="004B"/>
  <outline>
    <contour>
      <point x="244" y="0" type="line"/>
      <point x="405" y="0" type="line"/>
      <point x="405" y="437" type="line"/>
      <point x="656" y="695" type="line"/>
      <point x="1158" y="0" type="line"/>
      <point x="1334" y="0" type="line"/>
      <point x="752" y="795" type="line"/>
      <point x="1308" y="1433" type="line"/>
      <point x="1137" y="1433" type="line"/>
      <point x="842" y="1092"/>
      <point x="692" y="963"/>
      <point x="405" y="613" type="curve"/>
      <point x="405" y="1433" type="line"/>
      <point x="244" y="1433" type="line"/>
    </contour>
  </outline>
</glyph>
<glyph name="M" format="1">
  <advance width="1738"/>
  <unicode hex="004D"/>
  <outline>
    <contour>
      <point x="244" y="0" type="line"/>
      <point x="397" y="0" type="line"/>
      <point x="397" y="1130" type="line"/>
      <point x="807" y="470" type="line"/>
      <point x="935" y="470" type="line"/>
      <point x="1344" y="1134" type="line"/>
      <point x="1344" y="0" type="line"/>
      <point x="1494" y="0" type="line"/>
      <point x="1495" y="1433" type="line"/>
      <point x="1392" y="1433" type="line"/>
      <point x="871" y="586" type="line"/>
      <point x="359" y="1433" type="line"/>
      <point x="244" y="1433" type="line"/>
    </contour>
  </outline>
</glyph>
<glyph name="N" format="1">
  <advance width="1602"/>
  <unicode hex="004E"/>
  <outline>
    <contour>
      <point x="247" y="0" type="line"/>
      <point x="382" y="0" type="line"/>
      <point x="382" y="1164" type="line"/>
      <point x="1197" y="0" type="line"/>
      <point x="1356" y="0" type="line"/>
      <point x="1356" y="1433" type="line"/>
      <point x="1220" y="1433" type="line"/>
      <point x="1220" y="205" type="line"/>
      <point x="369" y="1433" type="line"/>
      <point x="247" y="1433" type="line"/>
    </contour>
  </outline>
</glyph>
<glyph name="O" format="1">
  <advance width="1503"/>
  <unicode hex="004F"/>
  <outline>
    <contour>
      <point x="760" y="93" type="curve" smooth="yes"/>
      <point x="489" y="93"/>
      <point x="354" y="171"/>
      <point x="354" y="450" type="curve" smooth="yes"/>
      <point x="354" y="986" type="line" smooth="yes"/>
      <point x="354" y="1266"/>
      <point x="491" y="1356"/>
      <point x="760" y="1356" type="curve" smooth="yes"/>
      <point x="1030" y="1356"/>
      <point x="1150" y="1268"/>
      <point x="1150" y="986" type="curve" smooth="yes"/>
      <point x="1150" y="450" type="line" smooth="yes"/>
      <point x="1150" y="171"/>
      <point x="1032" y="93"/>
    </contour>
    <contour>
      <point x="760" y="-23" type="curve" smooth="yes"/>
      <point x="1206" y="-23"/>
      <point x="1310" y="193"/>
      <point x="1310" y="493" type="curve" smooth="yes"/>
      <point x="1310" y="938" type="line" smooth="yes"/>
      <point x="1310" y="1247"/>
      <point x="1208" y="1473"/>
      <point x="760" y="1473" type="curve" smooth="yes"/>
      <point x="295" y="1473"/>
      <point x="193" y="1259"/>
      <point x="193" y="950" type="curve" smooth="yes"/>
      <point x="193" y="480" type="line" smooth="yes"/>
      <point x="193" y="175"/>
      <point x="297" y="-23"/>
    </contour>
  </outline>
</glyph>
<glyph name="P" format="1">
  <advance width="1353"/>
  <unicode hex="0050"/>
  <outline>
    <contour>
      <point x="244" y="0" type="line"/>
      <point x="406" y="0" type="line"/>
      <point x="406" y="538" type="line"/>
      <point x="833" y="538" type="line" smooth="yes"/>
      <point x="1019" y="538"/>
      <point x="1193" y="637"/>
      <point x="1193" y="984" type="curve" smooth="yes"/>
      <point x="1193" y="1313"/>
      <point x="1029" y="1433"/>
      <point x="822" y="1433" type="curve" smooth="yes"/>
      <point x="244" y="1433" type="line"/>
    </contour>
    <contour>
      <point x="406" y="663" type="line"/>
      <point x="406" y="1305" type="line"/>
      <point x="819" y="1305" type="line" smooth="yes"/>
      <point x="1017" y="1305"/>
      <point x="1024" y="1106"/>
      <point x="1024" y="971" type="curve" smooth="yes"/>
      <point x="1024" y="834"/>
      <point x="1004" y="663"/>
      <point x="818" y="663" type="curve" smooth="yes"/>
    </contour>
  </outline>
</glyph>
<glyph name="Q" format="1">
  <advance width="1503"/>
  <unicode hex="0051"/>
  <outline>
    <contour>
      <point x="722" y="-1" type="line"/>
      <point x="947" y="-354" type="line"/>
      <point x="1068" y="-292" type="line"/>
      <point x="876" y="-12" type="line"/>
    </contour>
    <component base="O"/>
  </outline>
</glyph>
<glyph name="R" format="1">
  <advance width="1471"/>
  <unicode hex="0052"/>
  <outline>
    <contour>
      <point x="244" y="0" type="line"/>
      <point x="406" y="0" type="line"/>
      <point x="406" y="563" type="line"/>
      <point x="406" y="563"/>
      <point x="908" y="564"/>
      <point x="922" y="564" type="curve"/>
      <point x="1154" y="0" type="line"/>
      <point x="1324" y="0" type="line"/>
      <point x="1068" y="597" type="line"/>
      <point x="1164" y="639"/>
      <point x="1255" y="728"/>
      <point x="1255" y="983" type="curve" smooth="yes"/>
      <point x="1255" y="1331"/>
      <point x="1068" y="1433"/>
      <point x="889" y="1433" type="curve" smooth="yes"/>
      <point x="244" y="1433" type="line"/>
    </contour>
    <contour>
      <point x="406" y="691" type="line"/>
      <point x="406" y="1305" type="line"/>
      <point x="881" y="1305" type="line" smooth="yes"/>
      <point x="1077" y="1305"/>
      <point x="1088" y="1110"/>
      <point x="1088" y="964" type="curve" smooth="yes"/>
      <point x="1088" y="819"/>
      <point x="1050" y="691"/>
      <point x="865" y="691" type="curve" smooth="yes"/>
    </contour>
  </outline>
</glyph>
<glyph name="S" format="1">
  <advance width="1307"/>
  <unicode hex="0053"/>
  <outline>
    <contour>
      <point x="659" y="-23" type="curve" smooth="yes"/>
      <point x="935" y="-28"/>
      <point x="1160" y="116"/>
      <point x="1169" y="363" type="curve" smooth="yes"/>
      <point x="1178" y="609"/>
      <point x="993" y="670"/>
      <point x="821" y="760" type="curve" smooth="yes"/>
      <point x="522" y="915" type="line" smooth="yes"/>
      <point x="354" y="1003"/>
      <point x="337" y="1053"/>
      <point x="348" y="1144" type="curve" smooth="yes"/>
      <point x="362" y="1278"/>
      <point x="485" y="1355"/>
      <point x="707" y="1356" type="curve" smooth="yes"/>
      <point x="916" y="1358"/>
      <point x="1018" y="1283"/>
      <point x="1104" y="1227" type="curve"/>
      <point x="1146" y="1342" type="line"/>
      <point x="1071" y="1391"/>
      <point x="933" y="1471"/>
      <point x="664" y="1471" type="curve" smooth="yes"/>
      <point x="438" y="1471"/>
      <point x="204" y="1373"/>
      <point x="193" y="1128" type="curve" smooth="yes"/>
      <point x="182" y="889"/>
      <point x="360" y="847"/>
      <point x="517" y="762" type="curve" smooth="yes"/>
      <point x="794" y="617" type="line" smooth="yes"/>
      <point x="965" y="526"/>
      <point x="1028" y="482"/>
      <point x="1011" y="335" type="curve" smooth="yes"/>
      <point x="991" y="161"/>
      <point x="850" y="103"/>
      <point x="665" y="103" type="curve" smooth="yes"/>
      <point x="467" y="103"/>
      <point x="317" y="192"/>
      <point x="217" y="262" type="curve"/>
      <point x="159" y="144" type="line"/>
      <point x="290" y="48"/>
      <point x="477" y="-16"/>
    </contour>
  </outline>
</glyph>
<glyph name="U" format="1">
  <advance width="1517"/>
  <unicode hex="0055"/>
  <outline>
    <contour>
      <point x="769" y="-24" type="curve" smooth="yes"/>
      <point x="1203" y="-24"/>
      <point x="1302" y="208"/>
      <point x="1302" y="470" type="curve" smooth="yes"/>
      <point x="1302" y="1433" type="line"/>
      <point x="1140" y="1433" type="line"/>
      <point x="1140" y="451" type="line" smooth="yes"/>
      <point x="1140" y="153"/>
      <point x="970" y="101"/>
      <point x="769" y="101" type="curve" smooth="yes"/>
      <point x="570" y="101"/>
      <point x="377" y="154"/>
      <point x="377" y="451" type="curve" smooth="yes"/>
      <point x="377" y="1433" type="line"/>
      <point x="216" y="1433" type="line"/>
      <point x="216" y="475" type="line" smooth="yes"/>
      <point x="216" y="209"/>
      <point x="309" y="-24"/>
    </contour>
  </outline>
</glyph>
<glyph name="W" format="1">
  <advance width="1977"/>
  <unicode hex="0057"/>
  <outline>
    <contour>
      <point x="523" y="0" type="line"/>
      <point x="632" y="0" type="line"/>
      <point x="1010" y="1308" type="line"/>
      <point x="1366" y="0" type="line"/>
      <point x="1478" y="0" type="line"/>
      <point x="1849" y="1433" type="line"/>
      <point x="1709" y="1433" type="line"/>
      <point x="1423" y="295" type="line"/>
      <point x="1095" y="1433" type="line"/>
      <point x="896" y="1433" type="line"/>
      <point x="572" y="300" type="line"/>
      <point x="268" y="1433" type="line"/>
      <point x="128" y="1433" type="line"/>
    </contour>
  </outline>
</glyph>
<glyph name="X" format="1">
  <advance width="1325"/>
  <unicode hex="0058"/>
  <outline>
    <contour>
      <point x="138" y="0" type="line"/>
      <point x="287" y="0" type="line"/>
      <point x="666" y="596" type="line"/>
      <point x="1039" y="0" type="line"/>
      <point x="1211" y="0" type="line"/>
      <point x="749" y="728" type="line"/>
      <point x="1197" y="1433" type="line"/>
      <point x="1028" y="1433" type="line"/>
      <point x="669" y="856" type="line"/>
      <point x="302" y="1433" type="line"/>
      <point x="144" y="1433" type="line"/>
      <point x="588" y="724" type="line"/>
    </contour>
  </outline>
</glyph>
<glyph name="Y" format="1">
  <advance width="1319"/>
  <unicode hex="0059"/>
  <outline>
    <contour>
      <point x="596" y="0" type="line"/>
      <point x="756" y="0" type="line"/>
      <point x="756" y="587" type="line"/>
      <point x="1244" y="1433" type="line"/>
      <point x="1092" y="1433" type="line"/>
      <point x="676" y="713" type="line"/>
      <point x="241" y="1433" type="line"/>
      <point x="85" y="1433" type="line"/>
      <point x="596" y="587" type="line"/>
    </contour>
  </outline>
</glyph>
<glyph name="Z" format="1">
  <advance width="1275"/>
  <unicode hex="005A"/>
  <outline>
    <contour>
      <point x="201" y="0" type="line"/>
      <point x="1097" y="0" type="line"/>
      <point x="1097" y="153" type="line"/>
      <point x="381" y="153" type="line"/>
      <point x="1085" y="1294" type="line"/>
      <point x="1085" y="1433" type="line"/>
      <point x="232" y="1433" type="line"/>
      <point x="232" y="1280" type="line"/>
      <point x="907" y="1280" type="line"/>
      <point x="201" y="138" type="line"/>
    </contour>
  </outline>
</glyph>
<glyph name="bracketleft" format="1">
  <advance width="881"/>
  <unicode hex="005B"/>
  <outline>
    <contour>
      <point x="252" y="-83" type="line"/>
      <point x="664" y="-83" type="line"/>
      <point x="664" y="52" type="line"/>
      <point x="481" y="52" type="line"/>
      <point x="481" y="1381" type="line"/>
      <point x="664" y="1381" type="line"/>
      <point x="664" y="1515" type="line"/>
      <point x="252" y="1515" type="line"/>
    </contour>
  </outline>
</glyph>
<glyph name="bracketright" format="1">
  <advance width="864"/>
  <unicode hex="005D"/>
  <outline>
    <contour>
      <point x="217" y="-83" type="line"/>
      <point x="607" y="-83" type="line"/>
      <point x="607" y="1484" type="line"/>
      <point x="217" y="1484" type="line"/>
      <point x="217" y="1368" type="line"/>
      <point x="397" y="1368" type="line"/>
      <point x="397" y="34" type="line"/>
      <point x="217" y="34" type="line"/>
    </contour>
  </outline>
</glyph>
<glyph name="asciicircum" format="1">
  <advance width="1329"/>
  <unicode hex="005E"/>
  <outline>
    <contour>
      <point x="184" y="589" type="line"/>
      <point x="355" y="589" type="line"/>
      <point x="666" y="1180" type="line"/>
      <point x="978" y="589" type="line"/>
      <point x="1149" y="589" type="line"/>
      <point x="743" y="1275" type="line"/>
      <point x="577" y="1275" type="line"/>
    </contour>
  </outline>
</glyph>
<glyph name="underscore" format="1">
  <advance width="940"/>
  <unicode hex="005F"/>
  <outline>
    <contour>
      <point x="17" y="-106" type="line"/>
      <point x="925" y="-106" type="line"/>
      <point x="925" y="61" type="line"/>
      <point x="17" y="61" type="line"/>
    </contour>
  </outline>
</glyph>
<glyph name="grave" format="1">
  <advance width="642"/>
  <unicode hex="0060"/>
  <outline>
    <contour>
      <point x="396" y="1156" type="line"/>
      <point x="483" y="1156" type="line"/>
      <point x="337" y="1490" type="line"/>
      <point x="130" y="1490" type="line"/>
    </contour>
  </outline>
</glyph>
<glyph name="a" format="1">
  <advance width="1153"/>
  <unicode hex="0061"/>
  <outline>
    <contour>
      <point x="475" y="-19" type="curve" smooth="yes"/>
      <point x="686" y="-19"/>
      <point x="764" y="74"/>
      <point x="806" y="144" type="curve"/>
      <point x="835" y="39"/>
      <point x="882" y="-8"/>
      <point x="1020" y="-8" type="curve"/>
      <point x="1029" y="-8" type="line"/>
      <point x="1051" y="113" type="line"/>
      <point x="958" y="113"/>
      <point x="938" y="129"/>
      <point x="938" y="246" type="curve" smooth="yes"/>
      <point x="938" y="700" type="line" smooth="yes"/>
      <point x="938" y="917"/>
      <point x="847" y="1073"/>
      <point x="584" y="1073" type="curve" smooth="yes"/>
      <point x="313" y="1073"/>
      <point x="171" y="956"/>
      <point x="171" y="746" type="curve" smooth="yes"/>
      <point x="171" y="717" type="line"/>
      <point x="320" y="717" type="line"/>
      <point x="320" y="741" type="line" smooth="yes"/>
      <point x="320" y="826"/>
      <point x="333" y="953"/>
      <point x="578" y="953" type="curve" smooth="yes"/>
      <point x="797" y="953"/>
      <point x="786" y="821"/>
      <point x="786" y="746" type="curve" smooth="yes"/>
      <point x="786" y="652"/>
      <point x="655" y="622"/>
      <point x="559" y="603" type="curve" smooth="yes"/>
      <point x="196" y="521"/>
      <point x="128" y="424"/>
      <point x="126" y="289" type="curve" smooth="yes"/>
      <point x="124" y="133"/>
      <point x="233" y="-19"/>
    </contour>
    <contour>
      <point x="477" y="94" type="curve" smooth="yes"/>
      <point x="369" y="94"/>
      <point x="282" y="141"/>
      <point x="274" y="256" type="curve" smooth="yes"/>
      <point x="266" y="375"/>
      <point x="299" y="426"/>
      <point x="551" y="491" type="curve" smooth="yes"/>
      <point x="707" y="530"/>
      <point x="759" y="567"/>
      <point x="786" y="596" type="curve"/>
      <point x="786" y="279" type="line"/>
      <point x="764" y="171"/>
      <point x="611" y="94"/>
    </contour>
  </outline>
</glyph>
<glyph name="b" format="1">
  <advance width="1174"/>
  <unicode hex="0062"/>
  <outline>
    <contour>
      <point x="594" y="-13" type="curve" smooth="yes"/>
      <point x="876" y="-13"/>
      <point x="1024" y="147"/>
      <point x="1024" y="362" type="curve" smooth="yes"/>
      <point x="1024" y="729" type="line" smooth="yes"/>
      <point x="1024" y="942"/>
      <point x="879" y="1078"/>
      <point x="621" y="1078" type="curve" smooth="yes"/>
      <point x="518" y="1078"/>
      <point x="401" y="1044"/>
      <point x="332" y="1002" type="curve"/>
      <point x="332" y="1502" type="line"/>
      <point x="181" y="1502" type="line"/>
      <point x="181" y="0" type="line"/>
      <point x="298" y="0" type="line"/>
      <point x="321" y="74" type="line"/>
      <point x="372" y="43"/>
      <point x="464" y="-13"/>
    </contour>
    <contour>
      <point x="573" y="107" type="curve" smooth="yes"/>
      <point x="477" y="107"/>
      <point x="393" y="145"/>
      <point x="332" y="176" type="curve"/>
      <point x="332" y="881" type="line"/>
      <point x="423" y="922"/>
      <point x="545" y="956"/>
      <point x="629" y="956" type="curve" smooth="yes"/>
      <point x="774" y="956"/>
      <point x="872" y="882"/>
      <point x="872" y="747" type="curve" smooth="yes"/>
      <point x="872" y="336" type="line" smooth="yes"/>
      <point x="872" y="197"/>
      <point x="734" y="107"/>
    </contour>
  </outline>
</glyph>
<glyph name="c" format="1">
  <advance width="1088"/>
  <unicode hex="0063"/>
  <outline>
    <contour>
      <point x="570" y="-19" type="curve" smooth="yes"/>
      <point x="838" y="-19"/>
      <point x="944" y="98"/>
      <point x="977" y="351" type="curve"/>
      <point x="844" y="351" type="line"/>
      <point x="823" y="179"/>
      <point x="760" y="102"/>
      <point x="568" y="102" type="curve" smooth="yes"/>
      <point x="411" y="102"/>
      <point x="301" y="176"/>
      <point x="301" y="331" type="curve" smooth="yes"/>
      <point x="301" y="742" type="line" smooth="yes"/>
      <point x="301" y="882"/>
      <point x="410" y="951"/>
      <point x="568" y="951" type="curve" smooth="yes"/>
      <point x="743" y="951"/>
      <point x="829" y="892"/>
      <point x="835" y="682" type="curve"/>
      <point x="974" y="682" type="line"/>
      <point x="976" y="971"/>
      <point x="804" y="1073"/>
      <point x="565" y="1073" type="curve" smooth="yes"/>
      <point x="310" y="1073"/>
      <point x="149" y="942"/>
      <point x="149" y="748" type="curve" smooth="yes"/>
      <point x="149" y="351" type="line" smooth="yes"/>
      <point x="149" y="151"/>
      <point x="276" y="-19"/>
    </contour>
  </outline>
</glyph>
<glyph name="d" format="1">
  <advance width="1171"/>
  <unicode hex="0064"/>
  <outline>
    <contour>
      <point x="566" y="-13" type="curve" smooth="yes"/>
      <point x="675" y="-13"/>
      <point x="796" y="19"/>
      <point x="855" y="61" type="curve"/>
      <point x="887" y="0" type="line"/>
      <point x="991" y="0" type="line"/>
      <point x="991" y="1502" type="line"/>
      <point x="839" y="1502" type="line"/>
      <point x="839" y="1037" type="line"/>
      <point x="772" y="1062"/>
      <point x="673" y="1078"/>
      <point x="604" y="1078" type="curve" smooth="yes"/>
      <point x="298" y="1078"/>
      <point x="149" y="947"/>
      <point x="149" y="727" type="curve" smooth="yes"/>
      <point x="149" y="331" type="line" smooth="yes"/>
      <point x="149" y="132"/>
      <point x="255" y="-13"/>
    </contour>
    <contour>
      <point x="569" y="108" type="curve" smooth="yes"/>
      <point x="424" y="108"/>
      <point x="301" y="177"/>
      <point x="301" y="313" type="curve" smooth="yes"/>
      <point x="301" y="755" type="line" smooth="yes"/>
      <point x="301" y="894"/>
      <point x="438" y="957"/>
      <point x="597" y="957" type="curve" smooth="yes"/>
      <point x="690" y="957"/>
      <point x="774" y="938"/>
      <point x="839" y="906" type="curve"/>
      <point x="839" y="180" type="line"/>
      <point x="796" y="153"/>
      <point x="690" y="108"/>
    </contour>
  </outline>
</glyph>
<glyph name="e" format="1">
  <advance width="1099"/>
  <unicode hex="0065"/>
  <outline>
    <contour>
      <point x="568" y="-19" type="curve" smooth="yes"/>
      <point x="858" y="-19"/>
      <point x="945" y="85"/>
      <point x="973" y="320" type="curve"/>
      <point x="838" y="320" type="line"/>
      <point x="821" y="131"/>
      <point x="751" y="102"/>
      <point x="566" y="102" type="curve" smooth="yes"/>
      <point x="405" y="102"/>
      <point x="301" y="179"/>
      <point x="301" y="331" type="curve" smooth="yes"/>
      <point x="301" y="503" type="line"/>
      <point x="974" y="503" type="line"/>
      <point x="974" y="763" type="line" smooth="yes"/>
      <point x="974" y="958"/>
      <point x="823" y="1073"/>
      <point x="569" y="1073" type="curve" smooth="yes"/>
      <point x="287" y="1073"/>
      <point x="149" y="930"/>
      <point x="149" y="738" type="curve" smooth="yes"/>
      <point x="149" y="351" type="line" smooth="yes"/>
      <point x="149" y="181"/>
      <point x="230" y="-19"/>
    </contour>
    <contour>
      <point x="301" y="624" type="line"/>
      <point x="301" y="760" type="line" smooth="yes"/>
      <point x="301" y="898"/>
      <point x="399" y="951"/>
      <point x="566" y="951" type="curve" smooth="yes"/>
      <point x="726" y="951"/>
      <point x="824" y="915"/>
      <point x="824" y="783" type="curve" smooth="yes"/>
      <point x="824" y="624" type="line"/>
    </contour>
  </outline>
</glyph>
<glyph name="g" format="1">
  <advance width="1158"/>
  <unicode hex="0067"/>
  <outline>
    <contour>
      <point x="606" y="-333" type="curve" smooth="yes"/>
      <point x="858" y="-333"/>
      <point x="988" y="-182"/>
      <point x="988" y="42" type="curve"/>
      <point x="988" y="1054" type="line"/>
      <point x="807" y="1054" type="line"/>
      <point x="816" y="966" type="line"/>
      <point x="802" y="1013"/>
      <point x="659" y="1068"/>
      <point x="555" y="1068" type="curve" smooth="yes"/>
      <point x="291" y="1068"/>
      <point x="149" y="944"/>
      <point x="149" y="718" type="curve" smooth="yes"/>
      <point x="149" y="382" type="line" smooth="yes"/>
      <point x="149" y="158"/>
      <point x="309" y="44"/>
      <point x="584" y="44" type="curve" smooth="yes"/>
      <point x="654" y="44"/>
      <point x="778" y="76"/>
      <point x="836" y="139" type="curve"/>
      <point x="836" y="-27" type="line" smooth="yes"/>
      <point x="836" y="-94"/>
      <point x="812" y="-217"/>
      <point x="610" y="-217" type="curve" smooth="yes"/>
      <point x="459" y="-217"/>
      <point x="321" y="-168"/>
      <point x="305" y="-144" type="curve"/>
      <point x="256" y="-263" type="line"/>
      <point x="361" y="-321"/>
      <point x="458" y="-333"/>
    </contour>
    <contour>
      <point x="568" y="168" type="curve" smooth="yes"/>
      <point x="420" y="168"/>
      <point x="301" y="209"/>
      <point x="301" y="344" type="curve" smooth="yes"/>
      <point x="301" y="744" type="line" smooth="yes"/>
      <point x="301" y="883"/>
      <point x="413" y="947"/>
      <point x="572" y="947" type="curve" smooth="yes"/>
      <point x="758" y="947"/>
      <point x="836" y="874"/>
      <point x="836" y="798" type="curve"/>
      <point x="836" y="265" type="line"/>
      <point x="809" y="242"/>
      <point x="728" y="168"/>
    </contour>
  </outline>
</glyph>
<glyph name="h" format="1">
  <advance width="1183"/>
  <unicode hex="0068"/>
  <outline>
    <contour>
      <point x="177" y="0" type="line"/>
      <point x="329" y="0" type="line"/>
      <point x="329" y="759" type="line" smooth="yes"/>
      <point x="329" y="860"/>
      <point x="401" y="956"/>
      <point x="621" y="956" type="curve" smooth="yes"/>
      <point x="772" y="956"/>
      <point x="870" y="896"/>
      <point x="870" y="794" type="curve" smooth="yes"/>
      <point x="870" y="0" type="line"/>
      <point x="1022" y="0" type="line"/>
      <point x="1022" y="765" type="line" smooth="yes"/>
      <point x="1022" y="928"/>
      <point x="924" y="1078"/>
      <point x="640" y="1078" type="curve" smooth="yes"/>
      <point x="484" y="1078"/>
      <point x="398" y="1032"/>
      <point x="329" y="961" type="curve"/>
      <point x="329" y="1502" type="line"/>
      <point x="177" y="1502" type="line"/>
    </contour>
  </outline>
</glyph>
<glyph name="i" format="1">
  <advance width="578"/>
  <unicode hex="0069"/>
  <outline>
    <contour>
      <point x="217" y="0" type="line"/>
      <point x="368" y="0" type="line"/>
      <point x="368" y="1054" type="line"/>
      <point x="217" y="1054" type="line"/>
    </contour>
    <contour>
      <point x="203" y="1261" type="line"/>
      <point x="377" y="1261" type="line"/>
      <point x="377" y="1437" type="line"/>
      <point x="203" y="1437" type="line"/>
    </contour>
  </outline>
</glyph>
<glyph name="j" format="1">
  <advance width="574"/>
  <unicode hex="006A"/>
  <outline>
    <contour>
      <point x="53" y="-231" type="line"/>
      <point x="153" y="-231" type="line" smooth="yes"/>
      <point x="294" y="-231"/>
      <point x="401" y="-160"/>
      <point x="401" y="0" type="curve" smooth="yes"/>
      <point x="401" y="1055" type="line"/>
      <point x="254" y="1055" type="line"/>
      <point x="254" y="15" type="line" smooth="yes"/>
      <point x="254" y="-24"/>
      <point x="259" y="-120"/>
      <point x="129" y="-120" type="curve" smooth="yes"/>
      <point x="53" y="-120" type="line"/>
    </contour>
    <contour>
      <point x="236" y="1261" type="line"/>
      <point x="410" y="1261" type="line"/>
      <point x="410" y="1437" type="line"/>
      <point x="236" y="1437" type="line"/>
    </contour>
  </outline>
</glyph>
<glyph name="k" format="1">
  <advance width="1122"/>
  <unicode hex="006B"/>
  <outline>
    <contour>
      <point x="197" y="0" type="line"/>
      <point x="349" y="0" type="line"/>
      <point x="349" y="341" type="line"/>
      <point x="519" y="504" type="line"/>
      <point x="939" y="0" type="line"/>
      <point x="1110" y="0" type="line"/>
      <point x="627" y="574" type="line"/>
      <point x="1058" y="1054" type="line"/>
      <point x="899" y="1054" type="line"/>
      <point x="680" y="817"/>
      <point x="570" y="707"/>
      <point x="349" y="471" type="curve"/>
      <point x="349" y="1502" type="line"/>
      <point x="197" y="1502" type="line"/>
    </contour>
  </outline>
</glyph>
<glyph name="l" format="1">
  <advance width="728"/>
  <unicode hex="006C"/>
  <outline>
    <contour>
      <point x="586" y="-8" type="curve" smooth="yes"/>
      <point x="649" y="-8" type="line"/>
      <point x="672" y="113" type="line"/>
      <point x="674" y="113"/>
      <point x="604" y="113"/>
      <point x="606" y="113" type="curve" smooth="yes"/>
      <point x="406" y="112"/>
      <point x="346" y="159"/>
      <point x="346" y="355" type="curve" smooth="yes"/>
      <point x="346" y="1502" type="line"/>
      <point x="194" y="1502" type="line"/>
      <point x="194" y="360" type="line" smooth="yes"/>
      <point x="194" y="34"/>
      <point x="357" y="-8"/>
    </contour>
  </outline>
</glyph>
<glyph name="m" format="1">
  <advance width="1795"/>
  <unicode hex="006D"/>
  <outline>
    <contour>
      <point x="177" y="0" type="line"/>
      <point x="329" y="0" type="line"/>
      <point x="329" y="754" type="line" smooth="yes"/>
      <point x="329" y="855"/>
      <point x="383" y="951"/>
      <point x="603" y="951" type="curve" smooth="yes"/>
      <point x="754" y="951"/>
      <point x="833" y="891"/>
      <point x="833" y="789" type="curve" smooth="yes"/>
      <point x="833" y="0" type="line"/>
      <point x="984" y="0" type="line"/>
      <point x="984" y="749" type="line"/>
      <point x="981" y="854"/>
      <point x="1038" y="951"/>
      <point x="1259" y="951" type="curve" smooth="yes"/>
      <point x="1410" y="951"/>
      <point x="1482" y="891"/>
      <point x="1482" y="789" type="curve" smooth="yes"/>
      <point x="1482" y="0" type="line"/>
      <point x="1634" y="0" type="line"/>
      <point x="1634" y="760" type="line" smooth="yes"/>
      <point x="1634" y="922"/>
      <point x="1568" y="1073"/>
      <point x="1283" y="1073" type="curve" smooth="yes"/>
      <point x="1127" y="1073"/>
      <point x="1040" y="1031"/>
      <point x="971" y="966" type="curve"/>
      <point x="940" y="937" type="line"/>
      <point x="893" y="1016"/>
      <point x="800" y="1073"/>
      <point x="625" y="1073" type="curve" smooth="yes"/>
      <point x="469" y="1073"/>
      <point x="398" y="1028"/>
      <point x="329" y="961" type="curve"/>
      <point x="329" y="1054" type="line"/>
      <point x="177" y="1054" type="line"/>
    </contour>
  </outline>
</glyph>
<glyph name="n" format="1">
  <advance width="1204"/>
  <unicode hex="006E"/>
  <outline>
    <contour>
      <point x="194" y="0" type="line"/>
      <point x="346" y="0" type="line"/>
      <point x="346" y="754" type="line" smooth="yes"/>
      <point x="346" y="855"/>
      <point x="413" y="951"/>
      <point x="633" y="951" type="curve" smooth="yes"/>
      <point x="784" y="951"/>
      <point x="869" y="891"/>
      <point x="869" y="789" type="curve" smooth="yes"/>
      <point x="869" y="0" type="line"/>
      <point x="1021" y="0" type="line"/>
      <point x="1021" y="760" type="line" smooth="yes"/>
      <point x="1021" y="922"/>
      <point x="937" y="1073"/>
      <point x="653" y="1073" type="curve" smooth="yes"/>
      <point x="497" y="1073"/>
      <point x="415" y="1028"/>
      <point x="346" y="961" type="curve"/>
      <point x="346" y="1054" type="line"/>
      <point x="194" y="1054" type="line"/>
    </contour>
  </outline>
</glyph>
<glyph name="o" format="1">
  <advance width="1140"/>
  <unicode hex="006F"/>
  <outline>
    <contour>
      <point x="569" y="102" type="curve" smooth="yes"/>
      <point x="412" y="102"/>
      <point x="301" y="155"/>
      <point x="301" y="296" type="curve" smooth="yes"/>
      <point x="301" y="764" type="line" smooth="yes"/>
      <point x="301" y="904"/>
      <point x="420" y="951"/>
      <point x="569" y="951" type="curve" smooth="yes"/>
      <point x="724" y="951"/>
      <point x="838" y="896"/>
      <point x="838" y="764" type="curve" smooth="yes"/>
      <point x="838" y="296" type="line" smooth="yes"/>
      <point x="838" y="157"/>
      <point x="719" y="102"/>
    </contour>
    <contour>
      <point x="569" y="-19" type="curve" smooth="yes"/>
      <point x="888" y="-19"/>
      <point x="990" y="126"/>
      <point x="990" y="313" type="curve" smooth="yes"/>
      <point x="990" y="746" type="line" smooth="yes"/>
      <point x="990" y="937"/>
      <point x="826" y="1073"/>
      <point x="569" y="1073" type="curve" smooth="yes"/>
      <point x="312" y="1073"/>
      <point x="149" y="937"/>
      <point x="149" y="746" type="curve" smooth="yes"/>
      <point x="149" y="313" type="line" smooth="yes"/>
      <point x="149" y="125"/>
      <point x="263" y="-19"/>
    </contour>
  </outline>
</glyph>
<glyph name="p" format="1">
  <advance width="1170"/>
  <unicode hex="0070"/>
  <outline>
    <contour>
      <point x="177" y="-407" type="line"/>
      <point x="328" y="-407" type="line"/>
      <point x="328" y="41" type="line"/>
      <point x="379" y="14"/>
      <point x="464" y="-24"/>
      <point x="598" y="-24" type="curve" smooth="yes"/>
      <point x="862" y="-24"/>
      <point x="1020" y="126"/>
      <point x="1020" y="352" type="curve" smooth="yes"/>
      <point x="1020" y="720" type="line" smooth="yes"/>
      <point x="1020" y="923"/>
      <point x="894" y="1068"/>
      <point x="618" y="1068" type="curve" smooth="yes"/>
      <point x="496" y="1068"/>
      <point x="376" y="1019"/>
      <point x="326" y="970" type="curve"/>
      <point x="306" y="1054" type="line"/>
      <point x="177" y="1054" type="line"/>
    </contour>
    <contour>
      <point x="590" y="97" type="curve" smooth="yes"/>
      <point x="479" y="97"/>
      <point x="391" y="130"/>
      <point x="328" y="165" type="curve"/>
      <point x="328" y="817" type="line"/>
      <point x="339" y="841"/>
      <point x="444" y="946"/>
      <point x="596" y="946" type="curve" smooth="yes"/>
      <point x="744" y="946"/>
      <point x="868" y="872"/>
      <point x="868" y="737" type="curve" smooth="yes"/>
      <point x="868" y="326" type="line" smooth="yes"/>
      <point x="868" y="187"/>
      <point x="748" y="97"/>
    </contour>
  </outline>
</glyph>
<glyph name="q" format="1">
  <advance width="1170"/>
  <unicode hex="0071"/>
  <outline>
    <contour>
      <point x="841" y="-407" type="line"/>
      <point x="993" y="-407" type="line"/>
      <point x="993" y="1054" type="line"/>
      <point x="812" y="1054" type="line"/>
      <point x="820" y="962" type="line"/>
      <point x="803" y="1012"/>
      <point x="658" y="1068"/>
      <point x="551" y="1068" type="curve" smooth="yes"/>
      <point x="269" y="1068"/>
      <point x="149" y="933"/>
      <point x="149" y="719" type="curve" smooth="yes"/>
      <point x="149" y="313" type="line" smooth="yes"/>
      <point x="149" y="99"/>
      <point x="315" y="-24"/>
      <point x="573" y="-24" type="curve" smooth="yes"/>
      <point x="642" y="-24"/>
      <point x="776" y="-2"/>
      <point x="841" y="53" type="curve"/>
    </contour>
    <contour>
      <point x="568" y="98" type="curve" smooth="yes"/>
      <point x="423" y="98"/>
      <point x="301" y="139"/>
      <point x="301" y="274" type="curve" smooth="yes"/>
      <point x="301" y="744" type="line" smooth="yes"/>
      <point x="301" y="884"/>
      <point x="411" y="947"/>
      <point x="572" y="947" type="curve" smooth="yes"/>
      <point x="769" y="947"/>
      <point x="852" y="865"/>
      <point x="841" y="798" type="curve"/>
      <point x="841" y="193" type="line"/>
      <point x="828" y="166"/>
      <point x="719" y="98"/>
    </contour>
  </outline>
</glyph>
<glyph name="r" format="1">
  <advance width="734"/>
  <unicode hex="0072"/>
  <outline>
    <contour>
      <point x="179" y="0" type="line"/>
      <point x="331" y="0" type="line"/>
      <point x="331" y="833" type="line"/>
      <point x="361" y="913"/>
      <point x="570" y="925"/>
      <point x="689" y="935" type="curve"/>
      <point x="695" y="1069" type="line"/>
      <point x="605" y="1081"/>
      <point x="382" y="1022"/>
      <point x="331" y="946" type="curve"/>
      <point x="331" y="1054" type="line"/>
      <point x="179" y="1054" type="line"/>
    </contour>
  </outline>
</glyph>
<glyph name="s" format="1">
  <advance width="979"/>
  <unicode hex="0073"/>
  <outline>
    <contour>
      <point x="499" y="-19" type="curve" smooth="yes"/>
      <point x="778" y="-19"/>
      <point x="873" y="121"/>
      <point x="873" y="282" type="curve" smooth="yes"/>
      <point x="873" y="446"/>
      <point x="790" y="508"/>
      <point x="640" y="574" type="curve" smooth="yes"/>
      <point x="396" y="681" type="line" smooth="yes"/>
      <point x="312" y="718"/>
      <point x="282" y="745"/>
      <point x="282" y="799" type="curve" smooth="yes"/>
      <point x="282" y="886"/>
      <point x="341" y="948"/>
      <point x="505" y="948" type="curve" smooth="yes"/>
      <point x="617" y="948"/>
      <point x="716" y="930"/>
      <point x="799" y="896" type="curve"/>
      <point x="854" y="1014" type="line"/>
      <point x="774" y="1046"/>
      <point x="672" y="1075"/>
      <point x="493" y="1075" type="curve" smooth="yes"/>
      <point x="188" y="1075"/>
      <point x="133" y="915"/>
      <point x="133" y="830" type="curve" smooth="yes"/>
      <point x="133" y="669"/>
      <point x="214" y="610"/>
      <point x="360" y="546" type="curve" smooth="yes"/>
      <point x="591" y="447" type="line" smooth="yes"/>
      <point x="695" y="401"/>
      <point x="734" y="372"/>
      <point x="734" y="292" type="curve" smooth="yes"/>
      <point x="734" y="191"/>
      <point x="678" y="107"/>
      <point x="497" y="107" type="curve" smooth="yes"/>
      <point x="331" y="107"/>
      <point x="208" y="155"/>
      <point x="161" y="194" type="curve"/>
      <point x="108" y="79" type="line"/>
      <point x="137" y="50"/>
      <point x="285" y="-17"/>
    </contour>
  </outline>
</glyph>
<glyph name="t" format="1">
  <advance width="807"/>
  <unicode hex="0074"/>
  <outline>
    <contour>
      <point x="609" y="-8" type="curve" smooth="yes"/>
      <point x="676" y="-8" type="line"/>
      <point x="696" y="113" type="line"/>
      <point x="622" y="113" type="line" smooth="yes"/>
      <point x="506" y="113"/>
      <point x="421" y="151"/>
      <point x="421" y="294" type="curve" smooth="yes"/>
      <point x="421" y="959" type="line"/>
      <point x="686" y="959" type="line"/>
      <point x="686" y="1055" type="line"/>
      <point x="421" y="1055" type="line"/>
      <point x="421" y="1375" type="line"/>
      <point x="299" y="1375" type="line"/>
      <point x="277" y="1055" type="line"/>
      <point x="79" y="1055" type="line"/>
      <point x="79" y="959" type="line"/>
      <point x="271" y="959" type="line"/>
      <point x="271" y="285" type="line" smooth="yes"/>
      <point x="271" y="70"/>
      <point x="399" y="-8"/>
    </contour>
  </outline>
</glyph>
<glyph name="u" format="1">
  <advance width="1190"/>
  <unicode hex="0075"/>
  <outline>
    <contour>
      <point x="545" y="-19" type="curve" smooth="yes"/>
      <point x="701" y="-19"/>
      <point x="786" y="35"/>
      <point x="844" y="132" type="curve"/>
      <point x="870" y="0" type="line"/>
      <point x="996" y="0" type="line"/>
      <point x="996" y="1054" type="line"/>
      <point x="844" y="1054" type="line"/>
      <point x="844" y="290" type="line" smooth="yes"/>
      <point x="844" y="206"/>
      <point x="783" y="103"/>
      <point x="563" y="103" type="curve" smooth="yes"/>
      <point x="412" y="103"/>
      <point x="335" y="174"/>
      <point x="335" y="276" type="curve" smooth="yes"/>
      <point x="335" y="1054" type="line"/>
      <point x="183" y="1054" type="line"/>
      <point x="183" y="294" type="line" smooth="yes"/>
      <point x="183" y="132"/>
      <point x="260" y="-19"/>
    </contour>
  </outline>
</glyph>
<glyph name="v" format="1">
  <advance width="1136"/>
  <unicode hex="0076"/>
  <outline>
    <contour>
      <point x="507" y="0" type="line"/>
      <point x="674" y="0" type="line"/>
      <point x="1026" y="1054" type="line"/>
      <point x="875" y="1054" type="line"/>
      <point x="591" y="181" type="line"/>
      <point x="264" y="1054" type="line"/>
      <point x="109" y="1054" type="line"/>
    </contour>
  </outline>
</glyph>
<glyph name="x" format="1">
  <advance width="1018"/>
  <unicode hex="0078"/>
  <outline>
    <contour>
      <point x="58" y="0" type="line"/>
      <point x="205" y="0" type="line"/>
      <point x="508" y="429" type="line"/>
      <point x="809" y="0" type="line"/>
      <point x="959" y="0" type="line"/>
      <point x="583" y="535" type="line"/>
      <point x="953" y="1054" type="line"/>
      <point x="808" y="1054" type="line"/>
      <point x="511" y="637" type="line"/>
      <point x="219" y="1054" type="line"/>
      <point x="66" y="1054" type="line"/>
      <point x="435" y="530" type="line"/>
    </contour>
  </outline>
</glyph>
<glyph name="y" format="1">
  <advance width="1107"/>
  <unicode hex="0079"/>
  <outline>
    <contour>
      <point x="227" y="-294" type="line"/>
      <point x="327" y="-294" type="line" smooth="yes"/>
      <point x="521" y="-294"/>
      <point x="610" y="-195"/>
      <point x="688" y="27" type="curve" smooth="yes"/>
      <point x="1045" y="1054" type="line"/>
      <point x="886" y="1054" type="line"/>
      <point x="596" y="180" type="line"/>
      <point x="255" y="1054" type="line"/>
      <point x="85" y="1054" type="line"/>
      <point x="525" y="6" type="line"/>
      <point x="482" y="-153"/>
      <point x="389" y="-165"/>
      <point x="319" y="-165" type="curve" smooth="yes"/>
      <point x="227" y="-165" type="line"/>
    </contour>
  </outline>
</glyph>
<glyph name="z" format="1">
  <advance width="960"/>
  <unicode hex="007A"/>
  <outline>
    <contour>
      <point x="171" y="0" type="line"/>
      <point x="841" y="0" type="line"/>
      <point x="841" y="101" type="line"/>
      <point x="325" y="101" type="line"/>
      <point x="836" y="960" type="line"/>
      <point x="836" y="1054" type="line"/>
      <point x="189" y="1054" type="line"/>
      <point x="189" y="954" type="line"/>
      <point x="682" y="954" type="line"/>
      <point x="171" y="97" type="line"/>
    </contour>
  </outline>
</glyph>
<glyph name="exclamdown" format="1">
  <advance width="478"/>
  <unicode hex="00A1"/>
  <outline>
    <contour>
      <point x="164" y="-348" type="line"/>
      <point x="343" y="-348" type="line"/>
      <point x="294" y="718" type="line"/>
      <point x="224" y="718" type="line"/>
    </contour>
    <contour>
      <point x="158" y="896" type="line"/>
      <point x="345" y="896" type="line"/>
      <point x="345" y="1085" type="line"/>
      <point x="158" y="1085" type="line"/>
    </contour>
  </outline>
</glyph>
<glyph name="cent" format="1">
  <advance width="1206"/>
  <unicode hex="00A2"/>
  <outline>
    <contour>
      <point x="562" y="-201" type="line"/>
      <point x="700" y="-201" type="line"/>
      <point x="700" y="-31" type="line"/>
      <point x="1000" y="-13"/>
      <point x="1068" y="115"/>
      <point x="1068" y="303" type="curve" smooth="yes"/>
      <point x="1068" y="343" type="line"/>
      <point x="914" y="343" type="line"/>
      <point x="914" y="362"/>
      <point x="913" y="268"/>
      <point x="913" y="272" type="curve" smooth="yes"/>
      <point x="913" y="119"/>
      <point x="784" y="88"/>
      <point x="629" y="88" type="curve" smooth="yes"/>
      <point x="464" y="88"/>
      <point x="333" y="132"/>
      <point x="333" y="309" type="curve" smooth="yes"/>
      <point x="333" y="779" type="line" smooth="yes"/>
      <point x="333" y="943"/>
      <point x="463" y="995"/>
      <point x="629" y="995" type="curve" smooth="yes"/>
      <point x="789" y="995"/>
      <point x="914" y="959"/>
      <point x="914" y="815" type="curve" smooth="yes"/>
      <point x="914" y="706" type="line"/>
      <point x="1068" y="706" type="line"/>
      <point x="1068" y="793" type="line" smooth="yes"/>
      <point x="1068" y="986"/>
      <point x="921" y="1092"/>
      <point x="700" y="1113" type="curve"/>
      <point x="700" y="1268" type="line"/>
      <point x="562" y="1268" type="line"/>
      <point x="562" y="1113" type="line"/>
      <point x="336" y="1091"/>
      <point x="173" y="970"/>
      <point x="173" y="789" type="curve" smooth="yes"/>
      <point x="173" y="318" type="line" smooth="yes"/>
      <point x="173" y="129"/>
      <point x="268" y="-12"/>
      <point x="562" y="-31" type="curve"/>
    </contour>
  </outline>
</glyph>
<glyph name="brokenbar" format="1">
  <advance width="766"/>
  <unicode hex="00A6"/>
  <outline>
    <contour>
      <point x="305" y="-213" type="line"/>
      <point x="478" y="-213" type="line"/>
      <point x="478" y="506" type="line"/>
      <point x="305" y="506" type="line"/>
    </contour>
    <contour>
      <point x="305" y="878" type="line"/>
      <point x="478" y="878" type="line"/>
      <point x="478" y="1632" type="line"/>
      <point x="305" y="1632" type="line"/>
    </contour>
  </outline>
</glyph>
<glyph name="logicalnot" format="1">
  <advance width="917"/>
  <unicode hex="00AC"/>
  <outline>
    <contour>
      <point x="635" y="368" type="line"/>
      <point x="767" y="368" type="line"/>
      <point x="767" y="731" type="line"/>
      <point x="94" y="731" type="line"/>
      <point x="94" y="609" type="line"/>
      <point x="635" y="609" type="line"/>
    </contour>
  </outline>
</glyph>
<glyph name="degree" format="1">
  <advance width="1013"/>
  <unicode hex="00B0"/>
  <outline>
    <contour>
      <point x="472" y="840" type="curve" smooth="yes"/>
      <point x="300" y="840"/>
      <point x="255" y="997"/>
      <point x="255" y="1098" type="curve" smooth="yes"/>
      <point x="255" y="1200"/>
      <point x="301" y="1356"/>
      <point x="472" y="1356" type="curve" smooth="yes"/>
      <point x="648" y="1356"/>
      <point x="691" y="1199"/>
      <point x="691" y="1097" type="curve" smooth="yes"/>
      <point x="691" y="997"/>
      <point x="647" y="840"/>
    </contour>
    <contour>
      <point x="471" y="777" type="curve" smooth="yes"/>
      <point x="747" y="777"/>
      <point x="830" y="890"/>
      <point x="830" y="1098" type="curve" smooth="yes"/>
      <point x="830" y="1306"/>
      <point x="744" y="1417"/>
      <point x="472" y="1417" type="curve" smooth="yes"/>
      <point x="278" y="1417"/>
      <point x="174" y="1261"/>
      <point x="174" y="1097" type="curve" smooth="yes"/>
      <point x="174" y="934"/>
      <point x="278" y="777"/>
    </contour>
  </outline>
</glyph>
<glyph name="plusminus" format="1">
  <advance width="1130"/>
  <unicode hex="00B1"/>
  <outline>
    <contour>
      <point x="515" y="338" type="line"/>
      <point x="617" y="338" type="line"/>
      <point x="617" y="649" type="line"/>
      <point x="898" y="649" type="line"/>
      <point x="898" y="743" type="line"/>
      <point x="617" y="743" type="line"/>
      <point x="617" y="1040" type="line"/>
      <point x="515" y="1040" type="line"/>
      <point x="515" y="743" type="line"/>
      <point x="235" y="743" type="line"/>
      <point x="235" y="649" type="line"/>
      <point x="515" y="649" type="line"/>
    </contour>
    <contour>
      <point x="235" y="0" type="line"/>
      <point x="898" y="0" type="line"/>
      <point x="898" y="101" type="line"/>
      <point x="235" y="101" type="line"/>
    </contour>
  </outline>
</glyph>
<glyph name="acute" format="1">
  <advance width="642"/>
  <unicode hex="00B4"/>
  <outline>
    <contour>
      <point x="454" y="1139" type="line"/>
      <point x="542" y="1139" type="line"/>
      <point x="295" y="1473" type="line"/>
      <point x="88" y="1473" type="line"/>
    </contour>
  </outline>
</glyph>
<glyph name="paragraph" format="1">
  <advance width="1262"/>
  <unicode hex="00B6"/>
  <outline>
    <contour>
      <point x="510" y="0" type="line"/>
      <point x="630" y="0" type="line"/>
      <point x="630" y="1340" type="line"/>
      <point x="823" y="1340" type="line"/>
      <point x="823" y="0" type="line"/>
      <point x="944" y="0" type="line"/>
      <point x="944" y="1433" type="line"/>
      <point x="555" y="1433" type="line" smooth="yes"/>
      <point x="361" y="1433"/>
      <point x="208" y="1365"/>
      <point x="208" y="1149" type="curve" smooth="yes"/>
      <point x="208" y="982"/>
      <point x="347" y="880"/>
      <point x="510" y="875" type="curve"/>
    </contour>
  </outline>
</glyph>
<glyph name="periodcentered" format="1">
  <advance width="407"/>
  <unicode hex="00B7"/>
  <outline>
    <contour>
      <point x="116" y="1488" type="line"/>
      <point x="302" y="1488" type="line"/>
      <point x="302" y="1678" type="line"/>
      <point x="116" y="1678" type="line"/>
    </contour>
  </outline>
</glyph>
<glyph name="onesuperior" format="1">
  <advance width="988"/>
  <unicode hex="00B9"/>
  <outline>
    <contour>
      <point x="207" y="501" type="line"/>
      <point x="831" y="501" type="line"/>
      <point x="831" y="602" type="line"/>
      <point x="600" y="602" type="line"/>
      <point x="600" y="1446" type="line"/>
      <point x="493" y="1446" type="line"/>
      <point x="213" y="1413" type="line"/>
      <point x="225" y="1309" type="line"/>
      <point x="469" y="1335" type="line"/>
      <point x="469" y="602" type="line"/>
      <point x="207" y="602" type="line"/>
    </contour>
  </outline>
</glyph>
<glyph name="Acircumflex" format="1">
  <advance width="1435"/>
  <unicode hex="00C2"/>
  <outline>
    <contour>
      <point x="72" y="0" type="line"/>
      <point x="241" y="0" type="line"/>
      <point x="349" y="271" type="line"/>
      <point x="1058" y="271" type="line"/>
      <point x="1165" y="0" type="line"/>
      <point x="1328" y="0" type="line"/>
      <point x="737" y="1433" type="line"/>
      <point x="662" y="1433" type="line"/>
    </contour>
    <contour>
      <point x="452" y="1617" type="line"/>
      <point x="588" y="1617" type="line"/>
      <point x="727" y="1793" type="line"/>
      <point x="854" y="1617" type="line"/>
      <point x="984" y="1617" type="line"/>
      <point x="767" y="1863" type="line"/>
      <point x="684" y="1863" type="line"/>
    </contour>
    <contour>
      <point x="401" y="391" type="line"/>
      <point x="706" y="1156" type="line"/>
      <point x="1009" y="391" type="line"/>
    </contour>
  </outline>
</glyph>
<glyph name="Aring" format="1">
  <advance width="1435"/>
  <unicode hex="00C5"/>
  <outline>
    <contour>
      <point x="72" y="0" type="line"/>
      <point x="241" y="0" type="line"/>
      <point x="349" y="271" type="line"/>
      <point x="1058" y="271" type="line"/>
      <point x="1165" y="0" type="line"/>
      <point x="1328" y="0" type="line"/>
      <point x="737" y="1433" type="line"/>
      <point x="662" y="1433" type="line"/>
    </contour>
    <contour>
      <point x="718" y="1488" type="curve" smooth="yes"/>
      <point x="659" y="1488"/>
      <point x="597" y="1504"/>
      <point x="597" y="1606" type="curve" smooth="yes"/>
      <point x="597" y="1707"/>
      <point x="660" y="1723"/>
      <point x="718" y="1723" type="curve" smooth="yes"/>
      <point x="779" y="1723"/>
      <point x="839" y="1706"/>
      <point x="839" y="1604" type="curve" smooth="yes"/>
      <point x="839" y="1503"/>
      <point x="778" y="1488"/>
    </contour>
    <contour>
      <point x="718" y="1433" type="curve" smooth="yes"/>
      <point x="813" y="1433"/>
      <point x="908" y="1482"/>
      <point x="908" y="1605" type="curve" smooth="yes"/>
      <point x="908" y="1728"/>
      <point x="813" y="1778"/>
      <point x="718" y="1778" type="curve" smooth="yes"/>
      <point x="624" y="1778"/>
      <point x="528" y="1728"/>
      <point x="528" y="1605" type="curve" smooth="yes"/>
      <point x="528" y="1482"/>
      <point x="624" y="1433"/>
    </contour>
    <contour>
      <point x="401" y="391" type="line"/>
      <point x="706" y="1156" type="line"/>
      <point x="1009" y="391" type="line"/>
    </contour>
  </outline>
</glyph>
<glyph name="Egrave" format="1">
  <advance width="1365"/>
  <unicode hex="00C8"/>
  <outline>
    <contour>
      <point x="251" y="0" type="line"/>
      <point x="1124" y="0" type="line"/>
      <point x="1124" y="117" type="line"/>
      <point x="412" y="117" type="line"/>
      <point x="412" y="672" type="line"/>
      <point x="1061" y="672" type="line"/>
      <point x="1061" y="795" type="line"/>
      <point x="412" y="795" type="line"/>
      <point x="412" y="1316" type="line"/>
      <point x="1113" y="1316" type="line"/>
      <point x="1113" y="1433" type="line"/>
      <point x="251" y="1433" type="line"/>
    </contour>
    <contour>
      <point x="819" y="1617" type="line"/>
      <point x="906" y="1617" type="line"/>
      <point x="760" y="1951" type="line"/>
      <point x="553" y="1951" type="line"/>
    </contour>
  </outline>
</glyph>
<glyph name="Ecircumflex" format="1">
  <advance width="1365"/>
  <unicode hex="00CA"/>
  <outline>
    <contour>
      <point x="251" y="0" type="line"/>
      <point x="1124" y="0" type="line"/>
      <point x="1124" y="117" type="line"/>
      <point x="412" y="117" type="line"/>
      <point x="412" y="672" type="line"/>
      <point x="1061" y="672" type="line"/>
      <point x="1061" y="795" type="line"/>
      <point x="412" y="795" type="line"/>
      <point x="412" y="1316" type="line"/>
      <point x="1113" y="1316" type="line"/>
      <point x="1113" y="1433" type="line"/>
      <point x="251" y="1433" type="line"/>
    </contour>
    <contour>
      <point x="464" y="1617" type="line"/>
      <point x="600" y="1617" type="line"/>
      <point x="739" y="1793" type="line"/>
      <point x="866" y="1617" type="line"/>
      <point x="996" y="1617" type="line"/>
      <point x="779" y="1863" type="line"/>
      <point x="696" y="1863" type="line"/>
    </contour>
  </outline>
</glyph>
<glyph name="Edieresis" format="1">
  <advance width="1365"/>
  <unicode hex="00CB"/>
  <outline>
    <contour>
      <point x="251" y="0" type="line"/>
      <point x="1124" y="0" type="line"/>
      <point x="1124" y="117" type="line"/>
      <point x="412" y="117" type="line"/>
      <point x="412" y="672" type="line"/>
      <point x="1061" y="672" type="line"/>
      <point x="1061" y="795" type="line"/>
      <point x="412" y="795" type="line"/>
      <point x="412" y="1316" type="line"/>
      <point x="1113" y="1316" type="line"/>
      <point x="1113" y="1433" type="line"/>
      <point x="251" y="1433" type="line"/>
    </contour>
    <contour>
      <point x="389" y="1593" type="line"/>
      <point x="570" y="1593" type="line"/>
      <point x="570" y="1752" type="line"/>
      <point x="389" y="1752" type="line"/>
    </contour>
    <contour>
      <point x="889" y="1593" type="line"/>
      <point x="1070" y="1593" type="line"/>
      <point x="1070" y="1752" type="line"/>
      <point x="889" y="1752" type="line"/>
    </contour>
  </outline>
</glyph>
<glyph name="multiply" format="1">
  <advance width="1020"/>
  <unicode hex="00D7"/>
  <outline>
    <contour>
      <point x="257" y="202" type="line"/>
      <point x="512" y="468" type="line"/>
      <point x="766" y="202" type="line"/>
      <point x="871" y="331" type="line"/>
      <point x="887" y="316"/>
      <point x="597" y="600"/>
      <point x="612" y="584" type="curve"/>
      <point x="871" y="835" type="line"/>
      <point x="766" y="968" type="line"/>
      <point x="512" y="700" type="line"/>
      <point x="257" y="968" type="line"/>
      <point x="151" y="835" type="line"/>
      <point x="411" y="584" type="line"/>
      <point x="151" y="331" type="line"/>
    </contour>
  </outline>
</glyph>
<glyph name="Yacute" format="1">
  <advance width="1352"/>
  <unicode hex="00DD"/>
  <outline>
    <contour>
      <point x="640" y="0" type="line"/>
      <point x="804" y="0" type="line"/>
      <point x="804" y="590" type="line"/>
      <point x="1277" y="1433" type="line"/>
      <point x="1123" y="1433" type="line"/>
      <point x="1150" y="1496"/>
      <point x="668" y="654"/>
      <point x="695" y="717" type="curve"/>
      <point x="242" y="1433" type="line"/>
      <point x="84" y="1433" type="line"/>
      <point x="640" y="590" type="line"/>
    </contour>
    <contour>
      <point x="837" y="1617" type="line"/>
      <point x="925" y="1617" type="line"/>
      <point x="678" y="1951" type="line"/>
      <point x="471" y="1951" type="line"/>
    </contour>
  </outline>
</glyph>
<glyph name="eacute" format="1">
  <advance width="1135"/>
  <unicode hex="00E9"/>
  <outline>
    <contour>
      <point x="579" y="-19" type="curve" smooth="yes"/>
      <point x="920" y="-19"/>
      <point x="970" y="121"/>
      <point x="970" y="291" type="curve" smooth="yes"/>
      <point x="970" y="319" type="line"/>
      <point x="824" y="319" type="line"/>
      <point x="824" y="271" type="line" smooth="yes"/>
      <point x="824" y="134"/>
      <point x="727" y="102"/>
      <point x="577" y="102" type="curve" smooth="yes"/>
      <point x="394" y="102"/>
      <point x="310" y="170"/>
      <point x="310" y="308" type="curve" smooth="yes"/>
      <point x="310" y="503" type="line"/>
      <point x="970" y="503" type="line"/>
      <point x="970" y="763" type="line" smooth="yes"/>
      <point x="970" y="958"/>
      <point x="835" y="1073"/>
      <point x="580" y="1073" type="curve" smooth="yes"/>
      <point x="298" y="1073"/>
      <point x="158" y="930"/>
      <point x="158" y="738" type="curve" smooth="yes"/>
      <point x="158" y="328" type="line" smooth="yes"/>
      <point x="158" y="148"/>
      <point x="241" y="-19"/>
    </contour>
    <contour>
      <point x="310" y="624" type="line"/>
      <point x="310" y="760" type="line" smooth="yes"/>
      <point x="310" y="898"/>
      <point x="410" y="951"/>
      <point x="577" y="951" type="curve" smooth="yes"/>
      <point x="737" y="951"/>
      <point x="824" y="915"/>
      <point x="824" y="783" type="curve" smooth="yes"/>
      <point x="824" y="624" type="line"/>
    </contour>
    <contour>
      <point x="692" y="1206" type="line"/>
      <point x="779" y="1206" type="line"/>
      <point x="533" y="1540" type="line"/>
      <point x="326" y="1540" type="line"/>
    </contour>
  </outline>
</glyph>
<glyph name="ograve" format="1">
  <advance width="1228"/>
  <unicode hex="00F2"/>
  <outline>
    <contour>
      <point x="597" y="102" type="curve" smooth="yes"/>
      <point x="436" y="102"/>
      <point x="313" y="149"/>
      <point x="313" y="308" type="curve" smooth="yes"/>
      <point x="313" y="749" type="line" smooth="yes"/>
      <point x="313" y="908"/>
      <point x="444" y="951"/>
      <point x="597" y="951" type="curve" smooth="yes"/>
      <point x="757" y="951"/>
      <point x="881" y="900"/>
      <point x="881" y="749" type="curve" smooth="yes"/>
      <point x="881" y="308" type="line" smooth="yes"/>
      <point x="881" y="151"/>
      <point x="746" y="102"/>
    </contour>
    <contour>
      <point x="597" y="-19" type="curve" smooth="yes"/>
      <point x="938" y="-19"/>
      <point x="1033" y="130"/>
      <point x="1033" y="328" type="curve" smooth="yes"/>
      <point x="1033" y="749" type="line" smooth="yes"/>
      <point x="1033" y="943"/>
      <point x="836" y="1073"/>
      <point x="598" y="1073" type="curve" smooth="yes"/>
      <point x="341" y="1073"/>
      <point x="161" y="943"/>
      <point x="161" y="749" type="curve" smooth="yes"/>
      <point x="161" y="328" type="line" smooth="yes"/>
      <point x="161" y="128"/>
      <point x="254" y="-19"/>
    </contour>
    <contour>
      <point x="760" y="1206" type="line"/>
      <point x="847" y="1206" type="line"/>
      <point x="701" y="1540" type="line"/>
      <point x="494" y="1540" type="line"/>
    </contour>
  </outline>
</glyph>
<glyph name="odieresis" format="1">
  <advance width="1228"/>
  <unicode hex="00F6"/>
  <outline>
    <contour>
      <point x="597" y="102" type="curve" smooth="yes"/>
      <point x="436" y="102"/>
      <point x="313" y="149"/>
      <point x="313" y="308" type="curve" smooth="yes"/>
      <point x="313" y="749" type="line" smooth="yes"/>
      <point x="313" y="908"/>
      <point x="444" y="951"/>
      <point x="597" y="951" type="curve" smooth="yes"/>
      <point x="757" y="951"/>
      <point x="881" y="900"/>
      <point x="881" y="749" type="curve" smooth="yes"/>
      <point x="881" y="308" type="line" smooth="yes"/>
      <point x="881" y="151"/>
      <point x="746" y="102"/>
    </contour>
    <contour>
      <point x="597" y="-19" type="curve" smooth="yes"/>
      <point x="938" y="-19"/>
      <point x="1033" y="130"/>
      <point x="1033" y="328" type="curve" smooth="yes"/>
      <point x="1033" y="749" type="line" smooth="yes"/>
      <point x="1033" y="943"/>
      <point x="836" y="1073"/>
      <point x="598" y="1073" type="curve" smooth="yes"/>
      <point x="341" y="1073"/>
      <point x="161" y="943"/>
      <point x="161" y="749" type="curve" smooth="yes"/>
      <point x="161" y="328" type="line" smooth="yes"/>
      <point x="161" y="128"/>
      <point x="254" y="-19"/>
    </contour>
    <contour>
      <point x="270" y="1206" type="line"/>
      <point x="452" y="1206" type="line"/>
      <point x="452" y="1365" type="line"/>
      <point x="270" y="1365" type="line"/>
    </contour>
    <contour>
      <point x="771" y="1206" type="line"/>
      <point x="952" y="1206" type="line"/>
      <point x="952" y="1365" type="line"/>
      <point x="771" y="1365" type="line"/>
    </contour>
  </outline>
</glyph>
<glyph name="ugrave" format="1">
  <advance width="1204"/>
  <unicode hex="00F9"/>
  <outline>
    <contour>
      <point x="531" y="-19" type="curve" smooth="yes"/>
      <point x="687" y="-19"/>
      <point x="766" y="26"/>
      <point x="835" y="93" type="curve"/>
      <point x="835" y="0" type="line"/>
      <point x="987" y="0" type="line"/>
      <point x="987" y="1054" type="line"/>
      <point x="835" y="1054" type="line"/>
      <point x="835" y="290" type="line" smooth="yes"/>
      <point x="835" y="206"/>
      <point x="771" y="103"/>
      <point x="551" y="103" type="curve" smooth="yes"/>
      <point x="400" y="103"/>
      <point x="322" y="174"/>
      <point x="322" y="276" type="curve" smooth="yes"/>
      <point x="322" y="1054" type="line"/>
      <point x="170" y="1054" type="line"/>
      <point x="170" y="294" type="line" smooth="yes"/>
      <point x="170" y="132"/>
      <point x="247" y="-19"/>
    </contour>
    <contour>
      <point x="718" y="1216" type="line"/>
      <point x="806" y="1216" type="line"/>
      <point x="660" y="1550" type="line"/>
      <point x="453" y="1550" type="line"/>
    </contour>
  </outline>
</glyph>
<glyph name="uacute" format="1">
  <advance width="1247"/>
  <unicode hex="00FA"/>
  <outline>
    <contour>
      <point x="554" y="-19" type="curve" smooth="yes"/>
      <point x="711" y="-19"/>
      <point x="808" y="31"/>
      <point x="871" y="111" type="curve"/>
      <point x="871" y="0" type="line"/>
      <point x="1023" y="0" type="line"/>
      <point x="1023" y="1054" type="line"/>
      <point x="871" y="1054" type="line"/>
      <point x="871" y="306" type="line" smooth="yes"/>
      <point x="871" y="202"/>
      <point x="793" y="103"/>
      <point x="573" y="103" type="curve" smooth="yes"/>
      <point x="418" y="103"/>
      <point x="323" y="170"/>
      <point x="323" y="284" type="curve" smooth="yes"/>
      <point x="323" y="1054" type="line"/>
      <point x="171" y="1054" type="line"/>
      <point x="171" y="309" type="line" smooth="yes"/>
      <point x="171" y="132"/>
      <point x="264" y="-19"/>
    </contour>
    <contour>
      <point x="761" y="1206" type="line"/>
      <point x="849" y="1206" type="line"/>
      <point x="602" y="1540" type="line"/>
      <point x="395" y="1540" type="line"/>
    </contour>
  </outline>
</glyph>
<glyph name="ucircumflex" format="1">
  <advance width="1204"/>
  <unicode hex="00FB"/>
  <outline>
    <contour>
      <point x="531" y="-19" type="curve" smooth="yes"/>
      <point x="687" y="-19"/>
      <point x="766" y="26"/>
      <point x="835" y="93" type="curve"/>
      <point x="835" y="0" type="line"/>
      <point x="987" y="0" type="line"/>
      <point x="987" y="1054" type="line"/>
      <point x="835" y="1054" type="line"/>
      <point x="835" y="290" type="line" smooth="yes"/>
      <point x="835" y="206"/>
      <point x="771" y="103"/>
      <point x="551" y="103" type="curve" smooth="yes"/>
      <point x="400" y="103"/>
      <point x="322" y="174"/>
      <point x="322" y="276" type="curve" smooth="yes"/>
      <point x="322" y="1054" type="line"/>
      <point x="170" y="1054" type="line"/>
      <point x="170" y="294" type="line" smooth="yes"/>
      <point x="170" y="132"/>
      <point x="247" y="-19"/>
    </contour>
    <contour>
      <point x="316" y="1193" type="line"/>
      <point x="458" y="1193" type="line"/>
      <point x="590" y="1369" type="line"/>
      <point x="713" y="1193" type="line"/>
      <point x="848" y="1193" type="line"/>
      <point x="652" y="1438" type="line"/>
      <point x="530" y="1438" type="line"/>
    </contour>
  </outline>
</glyph>
<glyph name="Amacron" format="1">
  <advance width="1435"/>
  <unicode hex="0100"/>
  <outline>
    <contour>
      <point x="72" y="0" type="line"/>
      <point x="241" y="0" type="line"/>
      <point x="349" y="271" type="line"/>
      <point x="1058" y="271" type="line"/>
      <point x="1165" y="0" type="line"/>
      <point x="1328" y="0" type="line"/>
      <point x="737" y="1433" type="line"/>
      <point x="662" y="1433" type="line"/>
    </contour>
    <contour>
      <point x="520" y="1602" type="line"/>
      <point x="915" y="1602" type="line"/>
      <point x="915" y="1752" type="line"/>
      <point x="520" y="1752" type="line"/>
    </contour>
    <contour>
      <point x="401" y="391" type="line"/>
      <point x="706" y="1156" type="line"/>
      <point x="1009" y="391" type="line"/>
    </contour>
  </outline>
</glyph>
<glyph name="Abreve" format="1">
  <advance width="1435"/>
  <unicode hex="0102"/>
  <outline>
    <contour>
      <point x="72" y="0" type="line"/>
      <point x="241" y="0" type="line"/>
      <point x="349" y="271" type="line"/>
      <point x="1058" y="271" type="line"/>
      <point x="1165" y="0" type="line"/>
      <point x="1328" y="0" type="line"/>
      <point x="737" y="1433" type="line"/>
      <point x="662" y="1433" type="line"/>
    </contour>
    <contour>
      <point x="717" y="1606" type="curve" smooth="yes"/>
      <point x="861" y="1606"/>
      <point x="949" y="1708"/>
      <point x="949" y="1821" type="curve"/>
      <point x="854" y="1821" type="line"/>
      <point x="854" y="1743"/>
      <point x="796" y="1701"/>
      <point x="717" y="1701" type="curve" smooth="yes"/>
      <point x="643" y="1701"/>
      <point x="580" y="1747"/>
      <point x="580" y="1821" type="curve"/>
      <point x="486" y="1821" type="line"/>
      <point x="486" y="1708"/>
      <point x="573" y="1606"/>
    </contour>
    <contour>
      <point x="401" y="391" type="line"/>
      <point x="706" y="1156" type="line"/>
      <point x="1009" y="391" type="line"/>
    </contour>
  </outline>
</glyph>
<glyph name="cacute" format="1">
  <advance width="1195"/>
  <unicode hex="0107"/>
  <outline>
    <contour>
      <point x="602" y="-19" type="curve" smooth="yes"/>
      <point x="943" y="-19"/>
      <point x="1029" y="93"/>
      <point x="1029" y="291" type="curve" smooth="yes"/>
      <point x="1029" y="332" type="line"/>
      <point x="882" y="332" type="line"/>
      <point x="882" y="285" type="line" smooth="yes"/>
      <point x="882" y="128"/>
      <point x="752" y="102"/>
      <point x="602" y="102" type="curve" smooth="yes"/>
      <point x="441" y="102"/>
      <point x="312" y="144"/>
      <point x="312" y="317" type="curve" smooth="yes"/>
      <point x="312" y="741" type="line" smooth="yes"/>
      <point x="312" y="900"/>
      <point x="440" y="951"/>
      <point x="602" y="951" type="curve" smooth="yes"/>
      <point x="762" y="951"/>
      <point x="882" y="914"/>
      <point x="882" y="763" type="curve" smooth="yes"/>
      <point x="882" y="689" type="line"/>
      <point x="1029" y="689" type="line"/>
      <point x="1029" y="776" type="line" smooth="yes"/>
      <point x="1029" y="987"/>
      <point x="841" y="1073"/>
      <point x="603" y="1073" type="curve" smooth="yes"/>
      <point x="346" y="1073"/>
      <point x="161" y="948"/>
      <point x="161" y="754" type="curve" smooth="yes"/>
      <point x="161" y="324" type="line" smooth="yes"/>
      <point x="161" y="124"/>
      <point x="259" y="-19"/>
    </contour>
    <contour>
      <point x="757" y="1206" type="line"/>
      <point x="845" y="1206" type="line"/>
      <point x="598" y="1540" type="line"/>
      <point x="391" y="1540" type="line"/>
    </contour>
  </outline>
</glyph>
<glyph name="ccaron" format="1">
  <advance width="1195"/>
  <unicode hex="010D"/>
  <outline>
    <contour>
      <point x="602" y="-19" type="curve" smooth="yes"/>
      <point x="943" y="-19"/>
      <point x="1029" y="93"/>
      <point x="1029" y="291" type="curve" smooth="yes"/>
      <point x="1029" y="332" type="line"/>
      <point x="882" y="332" type="line"/>
      <point x="882" y="285" type="line" smooth="yes"/>
      <point x="882" y="128"/>
      <point x="752" y="102"/>
      <point x="602" y="102" type="curve" smooth="yes"/>
      <point x="441" y="102"/>
      <point x="312" y="144"/>
      <point x="312" y="317" type="curve" smooth="yes"/>
      <point x="312" y="741" type="line" smooth="yes"/>
      <point x="312" y="900"/>
      <point x="440" y="951"/>
      <point x="602" y="951" type="curve" smooth="yes"/>
      <point x="762" y="951"/>
      <point x="882" y="914"/>
      <point x="882" y="763" type="curve" smooth="yes"/>
      <point x="882" y="689" type="line"/>
      <point x="1029" y="689" type="line"/>
      <point x="1029" y="776" type="line" smooth="yes"/>
      <point x="1029" y="987"/>
      <point x="841" y="1073"/>
      <point x="603" y="1073" type="curve" smooth="yes"/>
      <point x="346" y="1073"/>
      <point x="161" y="948"/>
      <point x="161" y="754" type="curve" smooth="yes"/>
      <point x="161" y="324" type="line" smooth="yes"/>
      <point x="161" y="124"/>
      <point x="259" y="-19"/>
    </contour>
    <contour>
      <point x="568" y="1219" type="line"/>
      <point x="652" y="1219" type="line"/>
      <point x="883" y="1464" type="line"/>
      <point x="747" y="1464" type="line"/>
      <point x="609" y="1288" type="line"/>
      <point x="480" y="1464" type="line"/>
      <point x="351" y="1464" type="line"/>
    </contour>
  </outline>
</glyph>
<glyph name="Dcaron" format="1">
  <advance width="1625"/>
  <unicode hex="010E"/>
  <outline>
    <contour>
      <point x="795" y="1619" type="line"/>
      <point x="879" y="1619" type="line"/>
      <point x="1110" y="1865" type="line"/>
      <point x="974" y="1865" type="line"/>
      <point x="836" y="1688" type="line"/>
      <point x="707" y="1865" type="line"/>
      <point x="578" y="1865" type="line"/>
    </contour>
    <contour>
      <point x="413" y="116" type="line"/>
      <point x="413" y="1316" type="line"/>
      <point x="802" y="1316" type="line" smooth="yes"/>
      <point x="1008" y="1316"/>
      <point x="1210" y="1260"/>
      <point x="1210" y="947" type="curve" smooth="yes"/>
      <point x="1210" y="471" type="line" smooth="yes"/>
      <point x="1210" y="161"/>
      <point x="1010" y="116"/>
      <point x="802" y="116" type="curve" smooth="yes"/>
    </contour>
    <contour>
      <point x="251" y="0" type="line"/>
      <point x="814" y="0" type="line" smooth="yes"/>
      <point x="1160" y="0"/>
      <point x="1370" y="150"/>
      <point x="1370" y="471" type="curve" smooth="yes"/>
      <point x="1370" y="958" type="line" smooth="yes"/>
      <point x="1370" y="1229"/>
      <point x="1201" y="1433"/>
      <point x="811" y="1433" type="curve" smooth="yes"/>
      <point x="251" y="1433" type="line"/>
    </contour>
  </outline>
</glyph>
<glyph name="Emacron" format="1">
  <advance width="1365"/>
  <unicode hex="0112"/>
  <outline>
    <contour>
      <point x="251" y="0" type="line"/>
      <point x="1124" y="0" type="line"/>
      <point x="1124" y="117" type="line"/>
      <point x="412" y="117" type="line"/>
      <point x="412" y="672" type="line"/>
      <point x="1061" y="672" type="line"/>
      <point x="1061" y="795" type="line"/>
      <point x="412" y="795" type="line"/>
      <point x="412" y="1316" type="line"/>
      <point x="1113" y="1316" type="line"/>
      <point x="1113" y="1433" type="line"/>
      <point x="251" y="1433" type="line"/>
    </contour>
    <contour>
      <point x="532" y="1602" type="line"/>
      <point x="927" y="1602" type="line"/>
      <point x="927" y="1752" type="line"/>
      <point x="532" y="1752" type="line"/>
    </contour>
  </outline>
</glyph>
<glyph name="Edotaccent" format="1">
  <advance width="1365"/>
  <unicode hex="0116"/>
  <outline>
    <contour>
      <point x="251" y="0" type="line"/>
      <point x="1124" y="0" type="line"/>
      <point x="1124" y="117" type="line"/>
      <point x="412" y="117" type="line"/>
      <point x="412" y="672" type="line"/>
      <point x="1061" y="672" type="line"/>
      <point x="1061" y="795" type="line"/>
      <point x="412" y="795" type="line"/>
      <point x="412" y="1316" type="line"/>
      <point x="1113" y="1316" type="line"/>
      <point x="1113" y="1433" type="line"/>
      <point x="251" y="1433" type="line"/>
    </contour>
    <contour>
      <point x="604" y="1592" type="line"/>
      <point x="855" y="1592" type="line"/>
      <point x="855" y="1826" type="line"/>
      <point x="604" y="1826" type="line"/>
    </contour>
  </outline>
</glyph>
<glyph name="Gbreve" format="1">
  <advance width="1557"/>
  <unicode hex="011E"/>
  <outline>
    <contour>
      <point x="836" y="-23" type="curve" smooth="yes"/>
      <point x="1154" y="-23"/>
      <point x="1236" y="117"/>
      <point x="1253" y="249" type="curve"/>
      <point x="1290" y="0" type="line"/>
      <point x="1330" y="0" type="line"/>
      <point x="1330" y="726" type="line"/>
      <point x="978" y="726" type="line"/>
      <point x="978" y="599" type="line"/>
      <point x="1178" y="599" type="line"/>
      <point x="1178" y="462" type="line" smooth="yes"/>
      <point x="1178" y="159"/>
      <point x="1075" y="103"/>
      <point x="804" y="103" type="curve" smooth="yes"/>
      <point x="536" y="103"/>
      <point x="389" y="162"/>
      <point x="389" y="464" type="curve" smooth="yes"/>
      <point x="389" y="970" type="line" smooth="yes"/>
      <point x="389" y="1274"/>
      <point x="543" y="1346"/>
      <point x="809" y="1346" type="curve" smooth="yes"/>
      <point x="1074" y="1346"/>
      <point x="1178" y="1279"/>
      <point x="1178" y="978" type="curve" smooth="yes"/>
      <point x="1178" y="890" type="line"/>
      <point x="1306" y="890" type="line"/>
      <point x="1306" y="918" type="line" smooth="yes"/>
      <point x="1306" y="1230"/>
      <point x="1250" y="1473"/>
      <point x="809" y="1473" type="curve" smooth="yes"/>
      <point x="313" y="1473"/>
      <point x="216" y="1252"/>
      <point x="216" y="944" type="curve" smooth="yes"/>
      <point x="216" y="492" type="line" smooth="yes"/>
      <point x="216" y="170"/>
      <point x="311" y="-23"/>
    </contour>
    <contour>
      <point x="771" y="1606" type="curve" smooth="yes"/>
      <point x="915" y="1606"/>
      <point x="1004" y="1708"/>
      <point x="1004" y="1821" type="curve"/>
      <point x="908" y="1821" type="line"/>
      <point x="908" y="1743"/>
      <point x="851" y="1701"/>
      <point x="771" y="1701" type="curve" smooth="yes"/>
      <point x="697" y="1701"/>
      <point x="634" y="1747"/>
      <point x="634" y="1821" type="curve"/>
      <point x="540" y="1821" type="line"/>
      <point x="540" y="1708"/>
      <point x="627" y="1606"/>
    </contour>
  </outline>
</glyph>
<glyph name="Gdotaccent" format="1">
  <advance width="1557"/>
  <unicode hex="0120"/>
  <outline>
    <contour>
      <point x="836" y="-23" type="curve" smooth="yes"/>
      <point x="1154" y="-23"/>
      <point x="1236" y="117"/>
      <point x="1253" y="249" type="curve"/>
      <point x="1290" y="0" type="line"/>
      <point x="1330" y="0" type="line"/>
      <point x="1330" y="726" type="line"/>
      <point x="978" y="726" type="line"/>
      <point x="978" y="599" type="line"/>
      <point x="1178" y="599" type="line"/>
      <point x="1178" y="462" type="line" smooth="yes"/>
      <point x="1178" y="159"/>
      <point x="1075" y="103"/>
      <point x="804" y="103" type="curve" smooth="yes"/>
      <point x="536" y="103"/>
      <point x="389" y="162"/>
      <point x="389" y="464" type="curve" smooth="yes"/>
      <point x="389" y="970" type="line" smooth="yes"/>
      <point x="389" y="1274"/>
      <point x="543" y="1346"/>
      <point x="809" y="1346" type="curve" smooth="yes"/>
      <point x="1074" y="1346"/>
      <point x="1178" y="1279"/>
      <point x="1178" y="978" type="curve" smooth="yes"/>
      <point x="1178" y="890" type="line"/>
      <point x="1306" y="890" type="line"/>
      <point x="1306" y="918" type="line" smooth="yes"/>
      <point x="1306" y="1230"/>
      <point x="1250" y="1473"/>
      <point x="809" y="1473" type="curve" smooth="yes"/>
      <point x="313" y="1473"/>
      <point x="216" y="1252"/>
      <point x="216" y="944" type="curve" smooth="yes"/>
      <point x="216" y="492" type="line" smooth="yes"/>
      <point x="216" y="170"/>
      <point x="311" y="-23"/>
    </contour>
    <contour>
      <point x="647" y="1592" type="line"/>
      <point x="897" y="1592" type="line"/>
      <point x="897" y="1826" type="line"/>
      <point x="647" y="1826" type="line"/>
    </contour>
  </outline>
</glyph>
<glyph name="Hcircumflex" format="1">
  <advance width="1637"/>
  <unicode hex="0124"/>
  <outline>
    <contour>
      <point x="259" y="0" type="line"/>
      <point x="440" y="0" type="line"/>
      <point x="440" y="658" type="line"/>
      <point x="1196" y="658" type="line"/>
      <point x="1196" y="0" type="line"/>
      <point x="1377" y="0" type="line"/>
      <point x="1377" y="1434" type="line"/>
      <point x="1196" y="1434" type="line"/>
      <point x="1196" y="787" type="line"/>
      <point x="440" y="787" type="line"/>
      <point x="440" y="1434" type="line"/>
      <point x="259" y="1434" type="line"/>
    </contour>
    <contour>
      <point x="559" y="1625" type="line"/>
      <point x="688" y="1625" type="line"/>
      <point x="827" y="1808" type="line"/>
      <point x="955" y="1625" type="line"/>
      <point x="1076" y="1625" type="line"/>
      <point x="860" y="1862" type="line"/>
      <point x="791" y="1862" type="line"/>
    </contour>
  </outline>
</glyph>
<glyph name="hcircumflex" format="1">
  <advance width="1280"/>
  <unicode hex="0125"/>
  <outline>
    <contour>
      <point x="191" y="0" type="line"/>
      <point x="343" y="0" type="line"/>
      <point x="343" y="743" type="line" smooth="yes"/>
      <point x="343" y="864"/>
      <point x="432" y="956"/>
      <point x="652" y="956" type="curve" smooth="yes"/>
      <point x="808" y="956"/>
      <point x="923" y="899"/>
      <point x="923" y="786" type="curve" smooth="yes"/>
      <point x="923" y="0" type="line"/>
      <point x="1075" y="0" type="line"/>
      <point x="1075" y="745" type="line" smooth="yes"/>
      <point x="1075" y="931"/>
      <point x="952" y="1078"/>
      <point x="662" y="1078" type="curve" smooth="yes"/>
      <point x="503" y="1078"/>
      <point x="395" y="1022"/>
      <point x="343" y="948" type="curve"/>
      <point x="343" y="1433" type="line"/>
      <point x="191" y="1433" type="line"/>
    </contour>
    <contour>
      <point x="386" y="1566" type="line"/>
      <point x="523" y="1566" type="line"/>
      <point x="661" y="1742" type="line"/>
      <point x="789" y="1566" type="line"/>
      <point x="918" y="1566" type="line"/>
      <point x="702" y="1812" type="line"/>
      <point x="618" y="1812" type="line"/>
    </contour>
  </outline>
</glyph>
<glyph name="Ydieresis" format="1">
  <advance width="1060"/>
  <unicode hex="0178"/>
  <outline>
    <contour>
      <point x="305" y="0" type="line"/>
      <point x="611" y="0" type="line"/>
      <point x="611" y="508" type="line"/>
      <point x="1060" y="1450" type="line"/>
      <point x="754" y="1450" type="line"/>
      <point x="684" y="1293"/>
      <point x="600" y="989"/>
      <point x="529" y="832" type="curve"/>
      <point x="321" y="1450" type="line"/>
      <point x="0" y="1450" type="line"/>
      <point x="305" y="508" type="line"/>
    </contour>
    <contour>
      <point x="179" y="1582" type="line"/>
      <point x="438" y="1582" type="line"/>
      <point x="438" y="1804" type="line"/>
      <point x="179" y="1804" type="line"/>
    </contour>
    <contour>
      <point x="622" y="1582" type="line"/>
      <point x="883" y="1582" type="line"/>
      <point x="883" y="1804" type="line"/>
      <point x="622" y="1804" type="line"/>
    </contour>
  </outline>
</glyph>
<glyph name="florin" format="1">
  <advance width="974"/>
  <unicode hex="0192"/>
  <outline>
    <contour>
      <point x="285" y="-185" type="curve" smooth="yes"/>
      <point x="527" y="-185"/>
      <point x="562" y="-89"/>
      <point x="562" y="87" type="curve" smooth="yes"/>
      <point x="562" y="678" type="line"/>
      <point x="685" y="678" type="line"/>
      <point x="685" y="792" type="line"/>
      <point x="562" y="792" type="line"/>
      <point x="562" y="1188" type="line" smooth="yes"/>
      <point x="562" y="1258"/>
      <point x="559" y="1355"/>
      <point x="726" y="1355" type="curve" smooth="yes"/>
      <point x="738" y="1355"/>
      <point x="748" y="1356"/>
      <point x="760" y="1355" type="curve"/>
      <point x="760" y="1469" type="line"/>
      <point x="705" y="1475"/>
      <point x="636" y="1477"/>
      <point x="604" y="1477" type="curve" smooth="yes"/>
      <point x="407" y="1477"/>
      <point x="381" y="1336"/>
      <point x="381" y="1168" type="curve" smooth="yes"/>
      <point x="381" y="792" type="line"/>
      <point x="264" y="792" type="line"/>
      <point x="264" y="678" type="line"/>
      <point x="381" y="678" type="line"/>
      <point x="381" y="58" type="line" smooth="yes"/>
      <point x="381" y="-4"/>
      <point x="383" y="-65"/>
      <point x="236" y="-65" type="curve" smooth="yes"/>
      <point x="218" y="-65"/>
      <point x="201" y="-65"/>
      <point x="179" y="-63" type="curve"/>
      <point x="179" y="-177" type="line"/>
      <point x="225" y="-183"/>
      <point x="255" y="-185"/>
    </contour>
  </outline>
</glyph>
<glyph name="circumflex" format="1">
  <advance width="909"/>
  <unicode hex="02C6"/>
  <outline>
    <contour>
      <point x="186" y="1236" type="line"/>
      <point x="328" y="1236" type="line"/>
      <point x="461" y="1413" type="line"/>
      <point x="583" y="1236" type="line"/>
      <point x="718" y="1236" type="line"/>
      <point x="522" y="1481" type="line"/>
      <point x="400" y="1481" type="line"/>
    </contour>
  </outline>
</glyph>
<glyph name="caron" format="1">
  <advance width="917"/>
  <unicode hex="02C7"/>
  <outline>
    <contour>
      <point x="410" y="1238" type="line"/>
      <point x="494" y="1238" type="line"/>
      <point x="725" y="1483" type="line"/>
      <point x="589" y="1483" type="line"/>
      <point x="451" y="1307" type="line"/>
      <point x="322" y="1483" type="line"/>
      <point x="193" y="1483" type="line"/>
    </contour>
  </outline>
</glyph>
<glyph name="breve" format="1">
  <advance width="699"/>
  <unicode hex="02D8"/>
  <outline>
    <contour>
      <point x="353" y="1295" type="curve" smooth="yes"/>
      <point x="497" y="1295"/>
      <point x="585" y="1396"/>
      <point x="585" y="1509" type="curve"/>
      <point x="490" y="1509" type="line"/>
      <point x="490" y="1432"/>
      <point x="432" y="1390"/>
      <point x="353" y="1390" type="curve" smooth="yes"/>
      <point x="278" y="1390"/>
      <point x="216" y="1436"/>
      <point x="216" y="1509" type="curve"/>
      <point x="122" y="1509" type="line"/>
      <point x="122" y="1396"/>
      <point x="209" y="1295"/>
    </contour>
  </outline>
</glyph>
<glyph name="ring" format="1">
  <advance width="627"/>
  <unicode hex="02DA"/>
  <outline>
    <contour>
      <point x="316" y="1167" type="curve" smooth="yes"/>
      <point x="260" y="1167"/>
      <point x="205" y="1194"/>
      <point x="205" y="1282" type="curve" smooth="yes"/>
      <point x="205" y="1369"/>
      <point x="262" y="1394"/>
      <point x="316" y="1394" type="curve" smooth="yes"/>
      <point x="373" y="1394"/>
      <point x="425" y="1366"/>
      <point x="425" y="1280" type="curve" smooth="yes"/>
      <point x="425" y="1193"/>
      <point x="371" y="1167"/>
    </contour>
    <contour>
      <point x="316" y="1108" type="curve" smooth="yes"/>
      <point x="404" y="1108"/>
      <point x="505" y="1158"/>
      <point x="505" y="1281" type="curve" smooth="yes"/>
      <point x="505" y="1404"/>
      <point x="405" y="1453"/>
      <point x="316" y="1453" type="curve" smooth="yes"/>
      <point x="227" y="1453"/>
      <point x="125" y="1404"/>
      <point x="125" y="1281" type="curve" smooth="yes"/>
      <point x="125" y="1158"/>
      <point x="227" y="1108"/>
    </contour>
  </outline>
</glyph>
<glyph name="hungarumlaut" format="1">
  <advance width="989"/>
  <unicode hex="02DD"/>
  <outline>
    <contour>
      <point x="279" y="962" type="line"/>
      <point x="356" y="962" type="line"/>
      <point x="553" y="1470" type="line"/>
      <point x="383" y="1470" type="line"/>
    </contour>
    <contour>
      <point x="501" y="962" type="line"/>
      <point x="575" y="962" type="line"/>
      <point x="932" y="1470" type="line"/>
      <point x="737" y="1470" type="line"/>
    </contour>
  </outline>
</glyph>
<glyph name="daggerdbl" format="1">
  <advance width="1020"/>
  <unicode hex="2021"/>
  <outline>
    <contour>
      <point x="416" y="0" type="line"/>
      <point x="597" y="0" type="line"/>
      <point x="597" y="420" type="line"/>
      <point x="894" y="420" type="line"/>
      <point x="894" y="525" type="line"/>
      <point x="597" y="525" type="line"/>
      <point x="597" y="956" type="line"/>
      <point x="894" y="956" type="line"/>
      <point x="894" y="1060" type="line"/>
      <point x="597" y="1060" type="line"/>
      <point x="597" y="1498" type="line"/>
      <point x="416" y="1498" type="line"/>
      <point x="416" y="1060" type="line"/>
      <point x="126" y="1060" type="line"/>
      <point x="126" y="956" type="line"/>
      <point x="416" y="956" type="line"/>
      <point x="416" y="525" type="line"/>
      <point x="126" y="525" type="line"/>
      <point x="126" y="420" type="line"/>
      <point x="416" y="420" type="line"/>
    </contour>
  </outline>
</glyph>
<glyph name="bullet" format="1">
  <advance width="971"/>
  <unicode hex="2022"/>
  <outline>
    <contour>
      <point x="484" y="304" type="curve" smooth="yes"/>
      <point x="707" y="304"/>
      <point x="767" y="411"/>
      <point x="767" y="600" type="curve" smooth="yes"/>
      <point x="767" y="791"/>
      <point x="708" y="897"/>
      <point x="485" y="897" type="curve" smooth="yes"/>
      <point x="264" y="897"/>
      <point x="204" y="791"/>
      <point x="204" y="600" type="curve" smooth="yes"/>
      <point x="204" y="410"/>
      <point x="262" y="304"/>
    </contour>
  </outline>
</glyph>
<glyph name="ellipsis" format="1">
  <advance width="1466"/>
  <unicode hex="2026"/>
  <outline>
    <contour>
      <point x="121" y="0" type="line"/>
      <point x="369" y="0" type="line"/>
      <point x="369" y="253" type="line"/>
      <point x="121" y="253" type="line"/>
    </contour>
    <contour>
      <point x="943" y="0" type="line"/>
      <point x="1192" y="0" type="line"/>
      <point x="1192" y="253" type="line"/>
      <point x="943" y="253" type="line"/>
    </contour>
    <contour>
      <point x="1766" y="0" type="line"/>
      <point x="2014" y="0" type="line"/>
      <point x="2014" y="253" type="line"/>
      <point x="1766" y="253" type="line"/>
    </contour>
  </outline>
</glyph>
<glyph name="trademark" format="1">
  <advance width="1718"/>
  <unicode hex="2122"/>
  <outline>
    <contour>
      <point x="860" y="824" type="line"/>
      <point x="983" y="824" type="line"/>
      <point x="983" y="1418" type="line"/>
      <point x="1155" y="1038" type="line"/>
      <point x="1318" y="1038" type="line"/>
      <point x="1481" y="1418" type="line"/>
      <point x="1481" y="824" type="line"/>
      <point x="1606" y="824" type="line"/>
      <point x="1606" y="1502" type="line"/>
      <point x="1427" y="1502" type="line"/>
      <point x="1233" y="1078" type="line"/>
      <point x="1041" y="1502" type="line"/>
      <point x="860" y="1502" type="line"/>
    </contour>
    <contour>
      <point x="366" y="824" type="line"/>
      <point x="499" y="824" type="line"/>
      <point x="499" y="1392" type="line"/>
      <point x="702" y="1392" type="line"/>
      <point x="702" y="1502" type="line"/>
      <point x="132" y="1502" type="line"/>
      <point x="132" y="1392" type="line"/>
      <point x="366" y="1392" type="line"/>
    </contour>
  </outline>
</glyph>
<glyph name="c.alt" format="1">
  <advance width="1110"/>
  <outline>
    <contour>
      <point x="579" y="-20" type="curve" smooth="yes"/>
      <point x="908" y="-20"/>
      <point x="991" y="94"/>
      <point x="991" y="289" type="curve" smooth="yes"/>
      <point x="991" y="356" type="line"/>
      <point x="809" y="356" type="line"/>
      <point x="809" y="283" type="line" smooth="yes"/>
      <point x="809" y="153"/>
      <point x="718" y="121"/>
      <point x="579" y="121" type="curve" smooth="yes"/>
      <point x="432" y="121"/>
      <point x="337" y="176"/>
      <point x="337" y="318" type="curve" smooth="yes"/>
      <point x="337" y="746" type="line" smooth="yes"/>
      <point x="337" y="877"/>
      <point x="433" y="938"/>
      <point x="579" y="938" type="curve" smooth="yes"/>
      <point x="724" y="938"/>
      <point x="809" y="899"/>
      <point x="809" y="774" type="curve" smooth="yes"/>
      <point x="809" y="679" type="line"/>
      <point x="991" y="679" type="line"/>
      <point x="991" y="768" type="line" smooth="yes"/>
      <point x="991" y="981"/>
      <point x="842" y="1080"/>
      <point x="579" y="1080" type="curve" smooth="yes"/>
      <point x="316" y="1080"/>
      <point x="150" y="951"/>
      <point x="150" y="751" type="curve" smooth="yes"/>
      <point x="150" y="314" type="line" smooth="yes"/>
      <point x="150" y="118"/>
      <point x="263" y="-20"/>
    </contour>
  </outline>
</glyph>
